<?xml version="1.0" encoding="utf-8"?>
<!-- Generator: Adobe Illustrator 25.0.0, SVG Export Plug-In . SVG Version: 6.00 Build 0)  -->
<svg version="1.1" id="Capa_1" xmlns="http://www.w3.org/2000/svg" xmlns:xlink="http://www.w3.org/1999/xlink" x="0px" y="0px"
	 viewBox="0 0 513 303" style="enable-background:new 0 0 513 303;" xml:space="preserve">
<style type="text/css">
	.st0{clip-path:url(#SVGID_2_);}
	.st1{fill:none;stroke:url(#SVGID_5_);stroke-miterlimit:10;}
	.st2{fill:#FFFFFF;stroke:url(#SVGID_6_);stroke-miterlimit:10;}
	.st3{fill:#141859;stroke:#141859;stroke-width:0.75;stroke-miterlimit:10;}
	.st4{fill:none;stroke:#141859;stroke-width:4;stroke-linecap:round;stroke-miterlimit:10;}
	.st5{fill:#FFFFFF;stroke:#FFFFFF;stroke-width:0.75;stroke-miterlimit:10;}
	.st6{fill:#FFFFFF;stroke:#FFFFFF;stroke-width:4;stroke-linecap:round;stroke-miterlimit:10;}
	.st7{fill:#FFFFFF;}
	.st8{clip-path:url(#SVGID_8_);}
	.st9{fill:none;stroke:url(#SVGID_11_);stroke-miterlimit:10;}
	.st10{clip-path:url(#SVGID_13_);}
	.st11{fill:none;stroke:url(#SVGID_16_);stroke-miterlimit:10;}
	.st12{clip-path:url(#SVGID_18_);}
	.st13{fill:none;stroke:url(#SVGID_21_);stroke-miterlimit:10;}
	.st14{clip-path:url(#SVGID_23_);}
	.st15{fill:none;stroke:url(#SVGID_26_);stroke-miterlimit:10;}
	.st16{clip-path:url(#SVGID_28_);}
	.st17{fill:none;stroke:url(#SVGID_31_);stroke-miterlimit:10;}
	.st18{clip-path:url(#SVGID_33_);}
	.st19{fill:none;stroke:url(#SVGID_36_);stroke-miterlimit:10;}
	.st20{clip-path:url(#SVGID_38_);}
	.st21{fill:none;stroke:url(#SVGID_41_);stroke-miterlimit:10;}
	.st22{clip-path:url(#SVGID_43_);}
	.st23{fill:none;stroke:url(#SVGID_46_);stroke-miterlimit:10;}
	.st24{fill:#442470;}
	.st25{fill:#3F3D56;}
	.st26{fill:#F2F2F2;}
	.st27{fill:none;stroke:#3F3D56;stroke-width:2;stroke-miterlimit:10;}
	.st28{fill:#5D2C92;}
	.st29{fill:#575A89;}
	.st30{fill:#FFB9B9;}
	.st31{opacity:0.1;enable-background:new    ;}
	.st32{fill:#2F2E41;}
	.st33{fill:#FFFFFF;stroke:#FFFFFF;stroke-width:2.000000e-02;stroke-miterlimit:10;}
	.st34{fill:#380E6D;}
	.st35{clip-path:url(#SVGID_48_);}
	.st36{fill:none;stroke:url(#SVGID_51_);stroke-width:15;stroke-miterlimit:10;}
	.st37{opacity:0;fill:#5D2C92;enable-background:new    ;}
	.st38{opacity:0.1;}
	.st39{fill:#65617D;}
	.st40{opacity:0.2;enable-background:new    ;}
	.st41{fill:#D4DFEC;}
	.st42{fill:#FBBEBE;}
	.st43{fill:url(#SVGID_52_);}
	.st44{fill:none;stroke:#5D2C92;stroke-width:2;stroke-miterlimit:10;}
	.st45{fill:url(#SVGID_53_);}
	.st46{fill:#E3E1E5;}
	.st47{fill:#FFB8B8;}
	.st48{fill-rule:evenodd;clip-rule:evenodd;fill:#3F3D56;}
	.st49{fill:#CCCCCC;}
	.st50{fill:#E6E6E6;}
	.st51{fill:#E2E2E2;}
</style>
<g>
	<path class="st37" d="M474.2,234.9c-0.6,1.2-1.1,2.4-1.7,3.6c-0.9,1.8-1.7,3.6-2.6,5.4c-0.4,0.8-0.8,1.6-1.1,2.3
		c-4.2,8.5-8.1,16.1-11.4,22.3c-6.1,11.5-31,18.5-31,18.5l-73.7,1h-0.8l-6.3,0.5h-5.4h-16.6H323l-8.4,0.5h-0.3h-52l-46.4,0.5
		l-5.4,0.5h-33.5h0h-21.7h-0.2l-68.8,1H65.6c0,0-8.8-0.3-13-1.6c-7.3-2.2-13.9-6.4-19-12c-8.8-9.7-15.3-21.1-19.6-33.4
		c-0.6-1.8-1.2-3.6-1.7-5.4c-15-50.6,3.3-115.9,36.1-159.6c1.4-1.8,2.8-3.6,4.2-5.3l0,0c10.1-12.4,21.4-22.8,33.5-30.1
		c21.4-13.1,45.1-16.8,68.4-5.8c19.7,9.3,38.1,13.7,56,14.8c1.8,0.1,3.6,0.2,5.4,0.3c40.9,1.3,79.3-13.5,124.3-23
		c1.8-0.4,3.6-0.8,5.4-1.1c32.1-6.4,67.8-9.8,110.2-2.7c4.4,0.7,8.8,1.8,13,3.1c1.9,0.6,3.7,1.3,5.4,1.9c20.2,8.2,31.3,23.4,36,42.5
		c0.4,1.8,0.8,3.6,1.2,5.4C519.6,124.7,495.3,189.7,474.2,234.9z"/>
	<g class="st38">
		<path class="st28" d="M86.4,43v247.9l-20.6,0.2c-4.4,0-8.8-0.6-13-1.9V73.2h0C63,60.8,74.3,50.4,86.4,43z"/>
		<path class="st28" d="M511.6,79H48.6c1.4-1.8,2.8-3.6,4.2-5.3v0h457.6C510.9,75.4,511.2,77.2,511.6,79z"/>
		<path class="st28" d="M474.1,30.9v207.5h-1.7c-0.9,1.8-1.7,3.6-2.6,5.4c-0.4,0.8-0.7,1.6-1.1,2.3V28.9
			C470.6,29.5,472.4,30.2,474.1,30.9z"/>
		<path class="st28" d="M345.4,28.3V288L340,288V29.5C341.8,29.1,343.6,28.7,345.4,28.3z"/>
		<path class="st28" d="M215.6,52.5v236.9l-5.3,0.1V52.2C212.1,52.3,213.8,52.4,215.6,52.5z"/>
		<path class="st28" d="M472.5,238.4c-0.9,1.8-1.7,3.6-2.6,5.3H14c-0.6-1.8-1.2-3.5-1.7-5.3H472.5z"/>
	</g>
	<rect x="109.7" y="150.9" class="st25" width="9.2" height="28.2"/>
	<rect x="358.5" y="149.5" class="st25" width="9.2" height="29.6"/>
	<polygon class="st39" points="426.5,281.3 426.5,287.5 352.6,287.5 351.8,288 323.7,288.5 323.1,288.9 314.5,288.5 314.6,288.5 
		262,288.9 177,289.9 176.9,289.9 155.2,289.9 155,290.4 58.7,290.4 58.7,283.7 81.2,270 126.7,269.5 127.7,270 128,269.5 129,270 
		150.8,269.5 151.8,270 152.1,269 153.1,269.5 160.1,269.5 160.3,269 177.5,269.5 177.7,269.5 312.5,268 315.8,268.5 316.1,268.5 
		318.6,267.6 336.9,268 337.9,267.6 338.8,268 339.3,268 344.9,267.6 346.1,268 347.6,267.6 352.3,268 359.8,267.6 360.8,268 
		362.5,267.6 362.8,267.6 399.1,267.6 	"/>
	<polygon class="st40" points="426.5,281.3 426.5,287.5 352.6,287.5 351.8,288 323.7,288.5 323.1,288.9 314.5,288.5 314.6,288.5 
		262,288.9 177,289.9 176.9,289.9 155.2,289.9 155,290.4 58.7,290.4 58.7,283.7 81.2,270 126.7,269.5 127.7,270 128,269.5 129,270 
		150.8,269.5 151.8,270 152.1,269 153.1,269.5 160.1,269.5 160.3,269 177.5,269.5 177.7,269.5 312.5,268 315.8,268.5 316.1,268.5 
		318.6,267.6 336.9,268 337.9,267.6 338.8,268 339.3,268 344.9,267.6 346.1,268 347.6,267.6 352.3,268 359.8,267.6 360.8,268 
		362.5,267.6 362.8,267.6 399.1,267.6 	"/>
	<path class="st25" d="M151,256.9v11.9c0,1.2-0.7,2.2-1.7,2.7c-0.4,0.2-0.8,0.3-1.2,0.3l-16.9,0.4c-0.5,0-0.9-0.1-1.3-0.3
		c-1.1-0.5-1.7-1.5-1.7-2.7v-12.3H151z"/>
	<path class="st31" d="M151,256.9v11.9c0,1.2-0.7,2.2-1.7,2.7c-0.4,0.2-0.8,0.3-1.2,0.3l-16.9,0.4c-0.5,0-0.9-0.1-1.3-0.3
		c-1.1-0.5-1.7-1.5-1.7-2.7v-12.3H151z"/>
	<path class="st25" d="M152,256.9v11.9c0,1.2-0.7,2.2-1.7,2.7c-0.4,0.2-0.8,0.3-1.2,0.3l-16.9,0.4c-0.5,0-0.9-0.1-1.3-0.3
		c-1.1-0.5-1.7-1.5-1.7-2.7v-12.3H152z"/>
	<rect x="338.1" y="256.9" class="st25" width="22.8" height="15.6"/>
	<rect x="338.1" y="256.9" class="st31" width="22.8" height="15.6"/>
	<rect x="337.1" y="256.9" class="st25" width="22.8" height="15.6"/>
	<polygon class="st31" points="118.9,150.9 118.9,153.7 109.7,153.5 109.7,150.9 	"/>
	<path class="st39" d="M179.8,72.7l-11.1,79.7c-0.1,1.1-1.1,1.8-2.1,1.8l-88.8-2.3l-1.7,0c-1.2,0-2.1-1-2-2.1c0-0.1,0-0.2,0-0.2
		L86.5,66c0.2-1.1,1.1-1.8,2.2-1.8l89.2,6c1.1,0.1,2,1.1,2,2.2C179.8,72.6,179.8,72.6,179.8,72.7z"/>
	<polygon class="st28" points="92.5,70.1 83.1,143.7 164.7,146.3 174.8,75.3 	"/>
	<path class="st39" d="M196.3,69.3h94.4c1.4,0,2.6,1.2,2.6,2.6v78.9c0,1.4-1.2,2.6-2.6,2.6h-94.4c-1.4,0-2.6-1.2-2.6-2.6V71.9
		C193.8,70.5,194.9,69.3,196.3,69.3z"/>
	<rect x="198.6" y="74.6" class="st28" width="90.4" height="70"/>
	<polygon class="st31" points="367.7,149.5 367.7,151.3 358.5,151.5 358.5,149.5 	"/>
	<path class="st39" d="M409.2,148.1c0.1,0.8-0.6,1.5-1.4,1.6c0,0,0,0-0.1,0l-91,1.9c-0.8,0-1.4-0.6-1.5-1.4l-7.8-81.3
		c-0.1-0.8,0.5-1.6,1.3-1.6c0,0,0,0,0.1,0l90.3-4.5l1,0c0.8,0,1.5,0.6,1.6,1.4L409.2,148.1z"/>
	<polygon class="st28" points="312.6,72.1 395.1,68 402,141.9 320.2,143.8 	"/>
	<path class="st31" d="M409.2,148.1c0.1,0.8-0.6,1.5-1.4,1.6c0,0,0,0-0.1,0l-8.6-86.9l1,0c0.8,0,1.5,0.6,1.6,1.4L409.2,148.1z"/>
	<path class="st31" d="M88.7,64.3l-11,87.6l-1.7,0c-1.2,0-2.1-1-2-2.1c0-0.1,0-0.2,0-0.2L86.5,66C86.7,65,87.7,64.2,88.7,64.3z"/>
	<rect x="109.7" y="170.9" class="st31" width="9.2" height="8.3"/>
	<polygon class="st31" points="152,256.9 152,259.3 129.1,259.9 129.1,256.9 	"/>
	<path class="st39" d="M192.3,173.7v81.6c0,1-0.8,1.9-1.9,1.9l-93.4,2.5h0c-1.1,0-1.9-0.9-1.9-1.9v-84.1c0-1.1,0.9-1.9,1.9-1.9h93.3
		C191.4,171.8,192.3,172.7,192.3,173.7z"/>
	<path class="st31" d="M97.5,171.8v88h0c-1.1,0-1.9-0.9-1.9-1.9v-84.1C95.6,172.7,96.5,171.8,97.5,171.8L97.5,171.8z"/>
	<polygon class="st41" points="101.4,177.2 187.9,177.2 187.9,249.2 101.4,251.2 	"/>
	<rect x="358.5" y="170.9" class="st31" width="9.2" height="8.3"/>
	<polygon class="st31" points="359.9,256.9 359.9,260 337.1,259.4 337.1,256.9 	"/>
	<path class="st39" d="M390.1,173.7V258c0,1.1-0.9,1.9-1.9,1.9l0,0l-93.4-2.5c-1,0-1.9-0.9-1.9-1.9v-81.7c0-1.1,0.9-1.9,1.9-1.9
		h93.3C389.2,171.8,390.1,172.7,390.1,173.7z"/>
	<path class="st31" d="M390.1,173.7v84.2c0,1.1-0.9,1.9-1.9,1.9l0,0v-88.1l0,0C389.2,171.8,390.1,172.7,390.1,173.7z"/>
	<polygon class="st41" points="384.2,177.2 297.7,177.2 297.7,249.2 384.2,251.2 	"/>
	<path class="st39" d="M290.5,173.7v81.7c0,1-0.8,1.9-1.9,1.9l-92.9,2.5l0,0c-1.1,0-1.9-0.9-1.9-1.9v-84.2c0-1.1,0.9-1.9,1.9-1.9
		h92.9C289.6,171.8,290.4,172.7,290.5,173.7z"/>
	<polygon class="st41" points="200.1,177.2 286.1,177.2 286.1,249.2 200.1,251.2 	"/>
	<polygon class="st31" points="426.5,281.6 426.5,287.5 352.6,287.5 351.8,288 323.7,288.5 323.1,288.9 314.5,288.5 314.6,288.5 
		262,288.9 177,289.9 176.9,289.9 155.2,289.9 155,290.4 58.7,290.4 58.7,283.6 157,282.6 157.2,282.6 177.1,283.1 177.2,283.1 
		314.8,281.6 314.9,281.6 315,282.1 315.2,282.1 317.5,282.1 318.3,282.1 354.5,281.6 356.6,282.1 357.1,281.6 	"/>
	<circle class="st42" cx="243.8" cy="154.2" r="24.9"/>
	
		<linearGradient id="SVGID_2_" gradientUnits="userSpaceOnUse" x1="-225.7706" y1="2719.696" x2="-225.7706" y2="2902.939" gradientTransform="matrix(1 0 0 -1 484.66 3010.0901)">
		<stop  offset="0" style="stop-color:#808080;stop-opacity:0.25"/>
		<stop  offset="0.54" style="stop-color:#808080;stop-opacity:0.12"/>
		<stop  offset="1" style="stop-color:#808080;stop-opacity:0.1"/>
	</linearGradient>
	<path style="fill:url(#SVGID_2_);" d="M154.9,290.3c0-0.1,0-0.1,0-0.2c0.5-1.7,1.4-4.7,2-7.1c0.1-0.3,0.2-0.6,0.2-0.9
		c0.7-2.7,2.1-8.9,2.9-12.8c0.3-1.4,0.5-2.4,0.5-3c0.1-0.8,1.6-4.3,3.2-8.4c1.2-2.8,2.4-5.9,3.4-8.6c0.6-1.6,1.1-3.2,1.4-4.8
		c0.1-0.3,0.1-0.7,0-1c-0.1-0.6-0.2-1.1-0.2-1.7l0,0c-0.1-3,0.8-7.8,2.2-9.8c1.7-2.4,2.9-11.5,2.9-11.5s2.5,0.4,2.9-1.7
		c0-0.2,0.1-0.5,0-0.7c0-0.2,0-0.4,0-0.5c-0.4-3,7.2-6.3,11.4-7c0.5-0.1,1-0.1,1.5-0.1c1-0.1,2.1-0.3,3-0.7c0.5-0.1,0.9-0.3,1.5-0.5
		c1.8-0.6,3.9-1.4,6.2-2.3c8.5-3.3,18.9-7.8,18.9-7.8c0.1-0.3,0.2-0.7,0.2-1c1-4.2,7.7-9.2,7.7-9.2l0,0v-1c0.2-1.7,0.1-3.4,0.1-5.1
		c0-0.3,0-0.7,0.4-1v-0.3v-0.3c-0.5-0.3-0.5-0.7-0.5-1l-0.1-0.1c-0.7-0.6-1.4-1.3-1.9-2c-0.3-0.5-0.5-0.9-0.7-1.5
		c-0.6-1.6-0.7-3.5-1.2-5.2l-0.1-0.4c-0.5-1.8-1.2-3.5-1.9-5.1c-1.1-2.6-1.9-5.3-2.7-8.1c-0.5-1.7-1-3.3-1.5-5l-0.8-2.5
		c-0.1-0.5-0.3-1-0.4-1.5l0,0c-0.1-0.2-0.1-0.5-0.1-0.7l0,0c-0.1-0.7-0.1-1.5,0.1-2.2c0.2-0.5,0.4-1,0.6-1.5
		c0.1-0.2,0.2-0.4,0.2-0.7l0,0c0-0.1,0-0.1,0-0.2c0-0.2,0.1-0.3,0.1-0.5c0-0.6-0.1-1.3-0.3-1.9c0,0,0,0,0,0c0,0,0-0.1,0-0.1
		c-0.1-0.5-0.1-1-0.2-1.5c-0.2-2.6,0.4-5.3,1.7-7.6l0.1-0.2c0.3-0.5,0.6-0.9,0.9-1.4l0,0c0.2-0.2,0.3-0.4,0.5-0.6
		c-0.7,0.7-1.8,0.4-2.4-0.3c-0.1-0.1-0.2-0.2-0.3-0.4c0-0.1-0.1-0.1-0.1-0.2c0-0.1,0-0.1-0.1-0.2c-0.3-1.2,0.3-2.5,1-3.4
		c0.8-0.9,1.7-1.7,2.8-2.3l0,0c0.1,0,0.1-0.1,0.2-0.1c0.4-0.2,0.8-0.4,1.3-0.5l0,0c0.3-0.1,0.5-0.2,0.8-0.2l-1.8-0.2l-0.7-0.1
		c0.7-2.9,3.3-5.1,6.3-5.5h0.5c0.3,0.2,0.5,0.3,0.8,0.3c-0.8-0.4-1.3-1.2-1.3-2.1c1.3,1,4.5,1.8,4.5,1.8h0c-0.1-0.6-0.1-1.1-0.2-1.7
		l0,0l0,0l0,0c-0.1-0.8-0.1-1.5,0-2.3c0.9,0.9,2.2,1.3,3.5,1.2l-1.1-1.5c1,0.8,2.2,1.1,3.4,1.1l0.2,0c0.2,0,0.4-0.1,0.6-0.1h-0.3
		c-0.1-0.1-0.2-0.2-0.3-0.4l0-0.1c-0.2-0.3-0.4-0.7-0.5-1c0-0.1-0.1-0.3-0.1-0.4l0,0c-0.2-0.9-0.1-1.8,0.2-2.6
		c1.6,1.3,3.3,3.1,5.4,1.7c2.1-1.4,2.1-3.8,5.4-3.6c1.8,0.2,3.4,1.3,4.1,3c0.9-1.1,2.4-1.4,3.7-0.8c1.3,0.6,2,1.9,1.9,3.3
		c1.3-0.3,2.8-0.7,4.1-0.2s2.1,2.1,1.4,3.2c0,0,0,0.1-0.1,0.1c-0.6,0.8-1.9,1.2-1.8,2.2l0.2,0.1l0.6,0.5l0,0
		c2.5,1.8,4.9,3.7,7.2,5.6c1.2,1,2.5,2.2,2.6,3.8c0,0.4,0,0.8-0.1,1.2l0,0c-0.1,0.4-0.2,0.8-0.3,1.1c-0.2,1-0.3,2-0.2,2.9l0,0
		c0,0.3,0.1,0.6,0.1,0.9c0.7,3.8,3.8,6.8,4,10.7v0.3c0,0.4,0,0.8,0,1.2c-0.2,2.3-1.3,4.6-2.2,6.8c-0.1,0.1-0.1,0.3-0.2,0.4
		c-1.7,4.4-2.7,9-3.4,13.7c-0.2,1.6-0.6,3.3-1,4.9c-0.4,1.8-1.3,3.6-2.5,5.1c-0.5,0.6-1,1-1.6,1.5c-0.4,0.3-0.8,0.5-1.3,0.7
		c0,0,0,0,0,0c0.1,0.3,0.1,0.6,0.2,0.9c0,0.2,0.1,0.3,0.1,0.5l0,0c0,0,0,0,0,0c0.4,2.3,0.9,4.5,1.4,6.7l0.2,1.1
		c6.1,2.2,6.9,6.7,6.9,8.5c0,0.2,0,0.5,0,0.7c0,0,9.2,0.2,12.9,2.9c0.7,0.5,1.4,0.8,2.2,1.1c1.5,0.6,3,1,4.5,1.4
		c0.8,0.2,1.6,0.4,2.4,0.6c1.5,0.3,3,0.7,4.5,1c4,0.8,7.7,1.5,9.6,1.9c4.5,1.1,14.9,11.1,14.9,11.1s1.2,10,2.4,11.5
		c1.2,1.5,3.4,6.6,3.4,6.6l8,14.3l3.4,6h2.1c0.3,0,0.9,0.4,1.6,1c0.6,0.5,1.2,1.2,1.8,1.8l0.9,1l0.6,0.7c0,0,3.5,0.1,4.5,2.9
		c2.9-0.1,6.4,0.1,8.9,1.2c0.3,0.1,0.7,0.3,1,0.5c1,0.6,1.8,1.6,2,2.8c0,0.2,0.1,0.5,0.1,0.7c0,0.3,0,0.6,0,0.8
		c-0.2,3.7-2.6,6.8-4.8,8.9l0.2,0.3c0,0-0.1,0.2-0.2,0.5c0,0.1-0.1,0.2-0.1,0.3l0,0c-0.3,0.6-0.7,1.5-1.3,2.6
		c-1.3,2.3-2.8,4.5-4.7,6.4l-0.1,0.1l-28.1,0.3l-0.1-0.1l-5.5-6.5l-2.7-3.2l-0.1-0.1l-0.1,0.8l-0.3,2.6l-0.6,6.3l0,0.3v-0.2
		l-0.1,0.7l0.1-0.7h-0.1l-52,0.5l-85.4,1v0.4l0,0v-0.5h-21.6L154.9,290.3z"/>
	<path class="st42" d="M268.7,205.2c0,0-48.4,5.8-43.7,0c1.7-2.1,2.1-8.4,2-15.5c0-2.2-0.1-4.4-0.2-6.6c-0.5-10.7-1.8-21.1-1.8-21.1
		s42.3-19.9,37.4-4.1c-1.9,6.4-1.3,15.3,0.2,23.8c0.4,2.5,0.9,4.9,1.5,7.1C265.3,194.3,266.9,199.8,268.7,205.2z"/>
	<path class="st31" d="M268.7,205.2c0,0-48.4,5.8-43.7,0c1.7-2.1,2.1-8.4,2-15.5c7.4-3.1,16.8-0.8,16.8-0.8c9.9-2,16.2-1.6,20.3-0.2
		C265.3,194.3,266.9,199.8,268.7,205.2z"/>
	<path class="st28" d="M177.2,290.4v-0.5l85.3-1l51.4-0.5h0.1l-0.1,0.7l0.1-0.7h0.1v0.1l0.9-6.5l0.3-2.5l0.1-0.8l0.1-0.6l3-10l3-10
		l2.5-8.4l3.9-12.9c0,0-2.2-5.1-3.4-6.6c-1.2-1.5-2.4-11.4-2.4-11.4s-10.4-9.9-14.9-11c-1.9-0.5-5.7-1.1-9.6-1.9
		c-1.5-0.3-3-0.6-4.5-1c-0.8-0.2-1.6-0.4-2.4-0.6c-1.5-0.4-3-0.8-4.5-1.4c-0.8-0.3-1.5-0.7-2.2-1.1c-3.6-2.6-12.5-2.9-12.9-2.9l0,0
		c0,0,0,0-0.1,0v0c0.1-0.2,0.1-0.4,0.1-0.6c0-0.2,0-0.4,0-0.7c0-0.1,0-0.2,0-0.2c0-0.2-0.1-0.4-0.1-0.6c0-0.1,0-0.2-0.1-0.3
		c-0.1-0.6-0.3-1.2-0.6-1.7c0-0.1-0.1-0.2-0.1-0.2c-0.2-0.4-0.5-0.9-0.8-1.3c-0.1-0.1-0.1-0.2-0.2-0.3c-0.4-0.5-0.8-0.9-1.3-1.3
		c-0.1-0.1-0.3-0.2-0.4-0.3c-0.1-0.1-0.2-0.1-0.2-0.2l-0.4-0.3l-0.4-0.2c-0.4-0.2-0.7-0.4-1.1-0.6c-0.1-0.1-0.3-0.1-0.4-0.2
		c-0.1-0.1-0.3-0.1-0.5-0.2h0l-0.4-0.2c-0.3-0.1-0.6-0.2-0.9-0.3l-0.5-0.1l-0.5-0.1l-0.5-0.1c-0.5-0.1-1-0.2-1.6-0.3l-0.6-0.1
		l-0.6-0.1l-0.6,0l-0.8,0l-1,0c-4.3,0-8.6,0.5-12.8,1.4c-2.9-0.6-8.9-1.1-8.9-1.1h-0.4l-0.5,0.5h-0.6l-0.6,0.1c-0.2,0-0.4,0-0.6,0.1
		c-0.2,0-0.4,0.1-0.6,0.1l-0.3,0.1c-0.3,0.1-0.6,0.1-1,0.2c-0.1,0-0.2,0-0.3,0.1c-0.4,0.1-0.8,0.2-1.3,0.3c-0.2,0.1-0.4,0.1-0.6,0.2
		c-0.1,0-0.2,0.1-0.3,0.1l-0.3,0.1l-0.3,0.1l-0.4,0.1c-0.2,0.1-0.4,0.2-0.5,0.2c-0.1,0-0.2,0.1-0.3,0.1c-0.1,0.1-0.2,0.1-0.3,0.1
		c-1.1,0.6-2.1,1.3-3,2.1l-0.2,0.2l-0.2,0.2c-0.1,0.1-0.2,0.2-0.2,0.3c-0.3,0.3-0.6,0.7-0.9,1.1c-0.1,0.1-0.2,0.2-0.2,0.3
		c-0.3,0.5-0.6,0.9-0.8,1.4c-0.1,0.1-0.1,0.2-0.2,0.3c-0.3,0.5-0.5,1.1-0.7,1.7c-0.2,0.6-0.4,1.2-0.5,1.8
		c-0.1,0.5-10.3,4.5-18.8,7.8c-2.3,0.9-4.4,1.7-6.2,2.3c-0.5,0.2-1,0.3-1.5,0.5c-1,0.4-2,0.6-3,0.7c-0.5,0-1,0.1-1.5,0.1
		c-3.9,0.6-10.6,3.4-11.3,6.1c-0.1,0.2-0.1,0.5,0,0.7c0,0,0,0,0,0.1c0.5,3.4-2.9,2.9-2.9,2.9s-1.2,8.9-2.9,11.4
		c-1.2,1.7-2.1,5.6-2.2,8.5l0,0c-0.1,0.9,0,1.8,0.2,2.7c0,0,0,0,0,0.1c0.2,0.6-0.3,2.4-1.1,4.7c-0.9,2.5-2.1,5.6-3.3,8.5
		c-1.8,4.4-3.5,8.4-3.6,9.3c0,0.4-0.2,1.1-0.3,2c-0.7,3.7-2.3,10.7-3.1,13.5c-0.6,2.1-1.4,5-2,7c0,0.1,0,0.1,0,0.2h21.7v0.5h0.2
		H177.2z"/>
	<path class="st31" d="M184.9,233.2c0,0,27.7,14.3,37.7,12.6L184.9,233.2z"/>
	<path class="st31" d="M241.3,227.3c0,0,27,8.7,36,10C286.2,238.5,241.3,227.3,241.3,227.3z"/>
	<path class="st31" d="M271.2,199.2c-14.1,2.6-40.6,2-52.1,1.6c4.2-15.1,24.7-9.9,24.7-9.9C269.2,185.8,271.1,196.3,271.2,199.2z"/>
	<path class="st28" d="M271.2,198.2c-14.1,2.6-40.6,2-52.1,1.6c4.2-15.1,24.7-9.9,24.7-9.9C269.2,184.8,271.1,195.4,271.2,198.2z"/>
	<path class="st42" d="M346,264.6c0,0,16.6-2.6,16.9,4.7c0.3,7.3-8.5,12.4-8.5,12.4L346,264.6z"/>
	<path class="st31" d="M262.6,181.6c-0.7,0.3-1.4,0.6-2.2,0.8c-5.2,1.8-10.5,3.6-16,4.3c-5.5,0.7-11.3,0.1-16.1-2.7
		c-0.5-0.3-1-0.6-1.5-0.9c-0.5-10.7-1.8-21.1-1.8-21.1s42.3-19.9,37.4-4.1C260.4,164.2,261.1,173.2,262.6,181.6z"/>
	<path class="st25" d="M236.9,115.2c-1.4,0.4-2.9,0.1-4-0.9l1,1.4c-1.2,0.1-2.4-0.3-3.3-1.1c-0.1,1.3,0,2.5,0.2,3.8
		c-1.7,0.1-3.3-0.4-4.6-1.5c-0.1,0.9,0.5,1.7,1.3,2.1c-3.5-0.4-6.7,1.8-7.6,5.2l2.5,0.2c-2,0.4-3.8,1.5-5.1,3.1
		c-0.8,1-1.4,2.2-1,3.4s2,1.9,2.9,1.1c-2.6,3.1-3.7,7.1-3,11.1c0.2,0.8,0.3,1.7,0.2,2.6c-0.2,0.8-0.7,1.5-0.9,2.3
		c-0.5,1.4,0,3,0.4,4.4l2.3,7.5c0.8,2.7,1.6,5.4,2.7,8c0.8,1.7,1.4,3.4,1.9,5.1c0.6,2.4,0.6,4.9,1.9,7c0.9,1.3,2.1,2.3,3.5,3.1
		c4.8,2.8,10.6,3.3,16.1,2.7s10.8-2.5,16-4.3c1.2-0.4,2.3-0.8,3.3-1.5c3.6-2.4,4.4-7.2,5.1-11.5c0.8-4.8,1.8-9.5,3.5-14
		c1.1-2.7,2.4-5.4,2.2-8.2c-0.3-3.8-3.3-6.9-4-10.6c-0.2-1.2-0.2-2.5,0-3.8c0.2-0.7,0.4-1.5,0.4-2.3c-0.1-1.6-1.4-2.8-2.6-3.8
		c-2.6-2.2-5.3-4.2-8.1-6.2c-0.1-1,1.2-1.4,1.8-2.2c0.8-1.1,0-2.8-1.3-3.3c-1.3-0.5-2.7-0.2-4.1,0.2c0.2-1.8-1-3.4-2.8-3.6
		c-1.1-0.1-2.1,0.3-2.8,1.1c-0.7-1.7-2.3-2.8-4.1-3c-3.2-0.3-3.3,2.2-5.3,3.6c-2.1,1.4-3.8-0.4-5.3-1.7
		C235.7,112.2,235.9,113.9,236.9,115.2z"/>
	<path class="st28" d="M358.2,279c0,0-0.4,1-1.2,2.5c-1.2,2.3-2.7,4.4-4.3,6.4l-0.1,0.1h-0.8l-28.1,0.5H323l-0.1-0.1l-5.4-6.5
		l-2.1-2.4l-0.1-0.1l-0.2-0.2l-0.1-0.1l-0.1-0.2l-4-4.7l1.5-6.1l2.5-10.2l0.1-0.2l0.5-1.9l0.3-1.5l1.2-4.8l4-16.4l7.1,3.6l7.4,13.1
		l4,7.1h2.2c0.4,0,1.4,0.8,2.3,1.7c0.3,0.3,0.7,0.7,1,1c0.9,0.9,1.5,1.7,1.5,1.7s3.5,0.1,4.5,2.8c0,0.1,0.1,0.3,0.1,0.4
		c0.3,1.1,0.7,2.1,1.2,3.2c0.6,1.4,1.4,2.9,2.2,4.4c1.5,2.8,3,5.5,3.5,6.5l0.1,0.1L358.2,279z"/>
	<path class="st31" d="M316.7,257.3v0.7v0l-0.3,1.1l-0.6,9L315,279l-0.2,3.1l-0.5,6.5v-0.1l-52,0.5l-85.5,1v0.4h0.5V290v-0.1l0.2-7
		l0.4-13.6l0.4-11.6l0-1.2c0.1-2.8,2.4-5,5.3-5c0.1,0,0.2,0,0.3,0c2.3,0.2,5.3,0.4,8.8,0.7l1.5,0.1c20.5,1.4,58.5,3.3,96.8,1
		c0.8,0,1.6-0.1,2.4-0.2c5.9-0.4,11.9-0.9,17.8-1.5c2.8-0.3,5.3,1.7,5.6,4.6C316.7,256.6,316.7,256.9,316.7,257.3L316.7,257.3z"/>
	<path class="st25" d="M176.7,290.4v-0.5l85.5-1l52.3-0.5h0.1v-0.1l0.4-6.5l0.2-2.9l0.7-11l0.6-8.7v0c0-0.4,0-0.8-0.1-1.2
		c0,0,0,0,0,0c-0.1-0.8-0.5-1.6-1-2.3c-1.1-1.4-2.8-2.1-4.6-1.9c-5.9,0.6-11.8,1.1-17.8,1.5c-0.8,0.1-1.6,0.1-2.4,0.2
		c-38.3,2.3-76.3,0.4-96.9-1l-1.5-0.1c-3.6-0.3-6.5-0.5-8.8-0.7c-2.6-0.2-5,1.6-5.5,4.1c0,0.3-0.1,0.5-0.1,0.8l-0.3,10.8l-0.5,13.6
		l-0.2,7v0.2v0.4L176.7,290.4z"/>
	<path class="st31" d="M316.5,260.5l-0.6,7.4l-0.9,11.1l-0.2,2.8l-0.5,6.2l0,0.3v0.1l0,0l-0.1,0.7l0.1-0.7h-0.1l-52,0.5l-85.4,0.9
		v-0.1l0.2-7l0.5-13.6l0.3-9.1c0-1,0.6-2,1.5-2.6c0.6-0.3,1.2-0.5,1.8-0.4c1,0.1,2.3,0.2,3.7,0.3c2.4,0.2,5.3,0.4,8.7,0.6
		c6.3,0.4,14.2,0.8,23.3,1.2c25.3,1,59.4,1.3,91.8-1.5c1.5-0.1,3-0.3,4.4-0.4c0.6-0.1,1.2,0.1,1.7,0.3c0.1,0.1,0.3,0.2,0.4,0.3
		c0.4,0.3,0.8,0.7,1,1.2c0,0.1,0.1,0.2,0.1,0.3C316.5,259.6,316.5,260.1,316.5,260.5z"/>
	<path class="st31" d="M152,267.3v1.5c0,1.1-0.7,2.2-1.7,2.7l-19.4,0.4c-1.1-0.5-1.7-1.5-1.7-2.7v-1.5L152,267.3z"/>
	<polygon class="st25" points="152,272.5 126.7,273 126.7,268.8 152,268.3 	"/>
	<polygon class="st31" points="152,272.5 126.7,273 126.7,268.8 152,268.3 	"/>
	<polygon class="st25" points="152.9,272.5 127.7,273 127.7,268.8 152.9,268.3 	"/>
	<g class="st38">
		<path d="M237.1,113.6c-0.5-0.6-0.8-1.3-0.9-2.1c-0.1,0.8,0,1.5,0.2,2.2C236.7,113.7,236.9,113.7,237.1,113.6z"/>
		<path d="M230.9,116.8c-0.1-0.6-0.2-1.2-0.2-1.8c0,0.6,0,1.2,0,1.8L230.9,116.8z"/>
		<path d="M270.6,133.1c0-0.4,0.1-0.9,0.2-1.3c0.2-0.7,0.4-1.5,0.4-2.3c0-0.2,0-0.3-0.1-0.5c-0.1,0.4-0.2,0.9-0.3,1.3
			C270.5,131.2,270.5,132.1,270.6,133.1z"/>
		<path d="M260.5,118l0.5,0.4c0.4-0.3,0.9-0.7,1.2-1.1c0.4-0.5,0.4-1.2,0.2-1.8c0,0.1-0.1,0.2-0.2,0.3
			C261.6,116.7,260.3,117.1,260.5,118z"/>
		<path d="M220.5,122.7c-0.2,0.4-0.3,0.7-0.4,1.1c0.8-0.4,1.6-0.7,2.4-0.9L220.5,122.7z"/>
		<path d="M227.2,117.4c-0.3-0.2-0.6-0.4-0.9-0.6c0,0.2,0,0.4,0,0.6C226.6,117.4,226.9,117.4,227.2,117.4z"/>
		<path d="M274.7,146.1c-0.2,2.4-1.3,4.6-2.2,6.9c-1.8,4.5-2.8,9.2-3.5,14c-0.7,4.3-1.5,9.1-5.1,11.5c-1,0.6-2.2,1.1-3.3,1.5
			c-5.2,1.8-10.5,3.6-16,4.3s-11.3,0.1-16.1-2.7c-1.4-0.7-2.6-1.8-3.5-3.1c-1.3-2.1-1.3-4.6-1.9-7c-0.5-1.7-1.2-3.5-1.9-5.1
			c-1.1-2.6-1.9-5.3-2.7-8c-0.8-2.5-1.5-5-2.3-7.5c-0.2-0.8-0.4-1.5-0.6-2.3c-0.2,1.2,0.2,2.5,0.6,3.8c0.8,2.5,1.5,5,2.3,7.5
			c0.8,2.7,1.6,5.4,2.7,8c0.8,1.7,1.4,3.4,1.9,5.1c0.6,2.4,0.6,4.9,1.9,7c0.9,1.3,2.1,2.3,3.5,3.1c4.8,2.8,10.6,3.3,16.1,2.7
			s10.8-2.5,16-4.3c1.2-0.3,2.3-0.8,3.3-1.5c3.6-2.4,4.4-7.2,5.1-11.5c0.8-4.8,1.8-9.5,3.5-14C273.6,151.7,275,149,274.7,146.1
			C274.7,146.1,274.7,146.1,274.7,146.1z"/>
		<path d="M216.6,144.2C216.6,144.2,216.6,144.1,216.6,144.2c0.1-0.9,0-1.8-0.2-2.6c-0.1-0.5-0.2-1.1-0.2-1.6c-0.1,1,0,2.1,0.2,3.1
			C216.4,143.4,216.5,143.8,216.6,144.2z"/>
		<path d="M218.1,132.3c0.4-0.6,0.8-1.2,1.3-1.8c-0.9,0.9-2.5,0.1-2.9-1.1c-0.1,0.5-0.1,1,0,1.5
			C216.7,131.6,217.3,132.1,218.1,132.3z"/>
	</g>
	<path class="st31" d="M339.4,257c0,0,1.5,5.6,0,10.4C337.9,272.3,339.4,257,339.4,257z"/>
	<path class="st31" d="M346,262.7c0,0,0.6,7.1-0.8,8.4S346,262.7,346,262.7z"/>
	<line class="st44" x1="103.9" y1="188.3" x2="152.9" y2="187.9"/>
	<line class="st44" x1="103.9" y1="194.7" x2="152.9" y2="194.2"/>
	<line class="st44" x1="103.9" y1="200.5" x2="152.9" y2="200"/>
</g>
</svg>
