<?xml version="1.0" encoding="utf-8"?>
<!-- Generator: Adobe Illustrator 25.0.0, SVG Export Plug-In . SVG Version: 6.00 Build 0)  -->
<svg version="1.1" id="Capa_1" xmlns="http://www.w3.org/2000/svg" xmlns:xlink="http://www.w3.org/1999/xlink" x="0px" y="0px"
	 viewBox="0 0 1280 727" style="enable-background:new 0 0 1280 727;" xml:space="preserve">
<style type="text/css">
	.st0{fill:#FFFFFF;stroke:#FFFFFF;stroke-width:0.2;stroke-miterlimit:1;}
</style>
<g transform="translate(0.000000,727.000000) scale(0.100000,-0.100000)">
	<path class="st0" d="M7226,6715c-70-24-99-70-94-147l3-50l-217-125l-218-125v-331v-332l142-81c78-44,144-86,146-92
		c6-19-72-14-167,10c-84,22-100,23-626,23c-527,0-542-1-628-22c-113-29-165-29-252,3c-114,42-114,42-57-19c28-31,52-64,52-75
		c0-22-32-53-77-76c-44-22-89-80-102-132c-15-60-14-209,3-270c32-121,132-252,236-308c158-86,475-91,659-10c29,13,57,24,61,24
		c5,0,29-36,55-81c53-91,44-92,104,13c18,32,36,60,40,63c5,2,35-6,68-20c102-41,184-55,325-55c151,0,231,16,323,63
		c197,103,307,353,250,570c-21,79-39,103-117,153c-67,43-76,56-59,82c6,11,28,3,97-37l88-50l54,30c30,17,56,28,59,25
		c12-11,42-151,53-242c43-354-82-720-338-985c-381-397-974-494-1458-240c-538,283-792,916-597,1491c14,41,30,80,35,87
		c14,18,5,57-14,61c-21,4-36-25-77-146c-32-95-61-246-61-314c0-21-2-38-4-38s-51,27-109,60l-104,60l5,48c8,88-49,152-135,152
		c-78,0-145-86-125-162c10-38,29-25-265-193l-173-98l-2-330l-3-330l-218-124l-218-125l-22,20c-50,45-104,54-161,27
		c-37-18-76-79-76-120c0-51,53-120,101-130l29-7v-259c0-257,0-259,23-272c12-8,141-82,286-166l263-152l279,161
		c153,88,284,160,291,160c7-1,108-56,223-124l210-123l-3-50c-8-115,86-183,191-139c50,20,72,60,72,131v59l218,126l217,125v261
		c0,143,2,263,5,266s36-6,73-19c132-48,244-66,417-66c129,0,179,5,260,23c421,94,754,364,920,747c19,43,38,79,43,81
		c5,1,69-32,142-75l133-78l1-60c1-71,19-105,69-129c48-22,88-20,128,7c48,32,71,81,64,137l-5,45l219,125l220,125l3,329l3,330l50,29
		c28,16,126,74,220,127l169,98l23-24c53-57,142-56,192,2c17,19,34,46,37,59c16,65-33,149-95,161l-31,7v261v261l-38,21
		c-20,11-149,85-285,164l-249,143l-41-23c-23-13-134-77-246-142c-112-66-222-128-243-139l-39-20l-217,125l-217,124l3,50
		C7405,6675,7320,6747,7226,6715z M7313,6696c43-18,67-56,67-106c0-48-22-85-61-106c-36-18-63-18-105,2c-84,40-85,166-2,207
		C7253,6713,7271,6714,7313,6696z M8676,6413l274-158v-250l-1-250l-41-20c-60-29-83-65-84-132l-1-56l-212-123l-212-123l-202,116
		c-111,63-207,119-213,124c-7,6-10,27-7,52c5,58-28,114-85,142l-42,20v251v252l123,70c67,38,189,109,271,156s151,86,154,86
		C8400,6570,8525,6499,8676,6413z M7178,6478c19-19,35-23,87-23s68,4,87,23c14,12,27,22,31,22c8,0,406-227,425-242c9-8,12-71,12-257
		l-1-246l-42-20c-58-27-87-74-87-139v-51l-93-52c-50-29-111-64-135-78c-39-24-43-25-48-8c-22,65-65,143-79,143c-29,0-28-30,5-107
		c36-86,37-83-41-123l-35-18l-80,45c-43,25-81,48-83,50c-3,2,13,21,34,43c45,46,38,49-38,15l-56-24l-163,93l-163,94v318v319l210,122
		c116,67,214,122,219,122C7150,6500,7164,6490,7178,6478z M7918,5696c34-32,37-38,37-91s-3-59-39-92s-41-35-94-31c-48,4-60,9-83,38
		c-38,45-44,78-23,130s63,80,122,80C7872,5730,7887,5724,7918,5696z M9014,5715c60-29,83-103,51-165c-21-41-53-60-101-60
		c-122,0-163,166-55,225C8943,5734,8975,5733,9014,5715z M7740,5495c43-46,134-45,189,1l30,25l153-89c84-49,179-103,210-121l57-32
		l3-297c2-163,2-308,0-322c-3-21-36-44-218-149l-215-123l-23,21c-49,46-131,46-188,1l-25-19l-139,81c-76,44-140,82-142,83
		c-2,2,4,27,13,57c48,160,59,401,26,579c-10,57-38,166-34,170c10,10,266,158,274,159C7714,5520,7727,5509,7740,5495z M4647,5293
		c12-8,29-30,38-50c14-30,15-42,6-74c-42-141-247-102-228,44C4475,5300,4571,5342,4647,5293z M5724,5119c19-22,26-42,26-74
		c0-37-5-47-35-74c-39-34-71-39-115-16c-64,33-75,113-23,167c22,23,35,28,74,28C5691,5150,5702,5146,5724,5119z M6902,5123
		c35-37,43-72,25-116c-16-37-59-67-97-67c-56,0-119,74-106,125c3,13,18,37,32,54c22,27,33,31,73,31C6868,5150,6881,5145,6902,5123z
		 M4496,5085c50-34,116-34,167,0l37,26l82-47c145-83,138-75,138-155c0-198,74-443,187-623c17-26,23-44,17-53c-5-7-101-66-214-132
		l-205-118l-28,23c-36,30-66,38-123,31c-30-3-55-13-72-30l-27-26l-170,98c-94,53-189,108-212,122l-43,24v320v321l128,74
		c70,40,163,95,207,121s83,48,87,48C4456,5110,4476,5099,4496,5085z M7865,4420c26,0,74-51,81-86c9-48-2-83-38-116
		c-60-56-160-26-188,56c-17,53,11,113,64,137c23,10,47,16,54,14C7846,4422,7858,4420,7865,4420z M4192,4099c95-55,190-110,211-120
		c35-18,37-22,31-54c-3-18-1-50,6-69c12-37,71-96,95-96c8,0,19-9,25-19c11-22,14-470,2-487c-4-6-129-82-278-168l-272-156l-273,158
		l-274,158l-3,250l-2,249l42,20c60,29,83,64,84,133v57l210,122c115,67,212,122,216,122C4016,4200,4097,4155,4192,4099z M5249,4100
		c126-136,269-243,409-304l42-19l-2-265l-3-264l-214-124c-193-112-215-123-230-110c-9,9-34,23-55,31c-47,20-90,14-139-20l-36-24
		l-213,124l-213,123l-3,249l-2,248l42,20c59,27,88,74,88,140v52l208,121c114,66,212,120,217,121C5151,4200,5198,4155,5249,4100z
		 M4641,4007c19-12,42-40,53-61c47-96-52-201-158-166c-101,33-114,174-21,227C4566,4036,4598,4036,4641,4007z M3529,3979
		c65-64,42-164-44-193c-50-18-92-6-127,36C3263,3933,3426,4082,3529,3979z M5232,2991c22-25,28-41,28-77c0-39-5-51-34-80
		s-41-34-81-34s-52,5-81,34s-34,41-34,79c0,30,7,53,21,71c29,37,55,47,109,42C5194,3023,5211,3015,5232,2991z"/>
	<g>
		<path class="st0" d="M1594,2965c-6-15,22-67,265-499l152-269v-242c0-283-5-270,99-270c105,0,100-13,100,271v244l64,112
			c233,410,356,635,354,648c-4,21-169,27-186,8c-16-20-231-421-281-525l-45-92l-91,177c-133,258-226,425-243,440
			C1758,2986,1601,2985,1594,2965z"/>
		<path class="st0" d="M7832,2971c-22-14-27-87-8-116l16-25h210h210l2-567l3-568l46-8c26-5,66-5,90,0l44,9l3,567l2,567h209
			c170,0,211,3,221,15c15,18,15,102,0,120c-11,13-89,15-524,15C8075,2980,7839,2976,7832,2971z"/>
		<path class="st0" d="M10403,2729c-158-26-279-117-348-261c-48-99-58-160-52-307c5-149,27-221,92-309c82-112,190-162,365-170
			c97-4,128-1,194,17c134,37,186,74,186,132c0,65-19,72-84,34c-110-65-264-84-376-48c-168,54-256,275-206,514
			c37,172,146,275,305,287c88,6,158-10,250-60c41-21,80-37,88-34c8,4,13,23,13,54c0,37-5,53-23,70c-32,30-101,58-189,76
			C10534,2741,10484,2742,10403,2729z"/>
		<path class="st0" d="M4603,2723l-23-4v-415c0-228-3-414-7-414c-5,0-47,67-95,148c-141,237-384,625-411,655c-23,25-30,27-110,27
			c-64,0-89-4-101-16c-14-14-16-74-16-509c0-338,3-496,11-500c12-8,117-10,125-3c3,3,5,200,5,437c-1,237,3,431,7,431
			c5,0,15-15,24-33c16-33,352-577,450-729c62-96,80-108,161-108c105,0,97-41,97,528c0,475-1,492-19,502
			C4681,2730,4645,2731,4603,2723z"/>
		<path class="st0" d="M5097,2718c-16-12-17-52-15-518l3-505l63-3c38-2,69,2,78,9c12,10,14,93,14,510c0,482-1,499-19,509
			C5194,2734,5117,2733,5097,2718z"/>
		<path class="st0" d="M5613,2723c-10-4-13-114-13-502c0-470,1-499,18-514c16-15,51-17,288-17c197,0,273,3,282,12c7,7,12,28,12,48
			s-5,41-12,48c-9,9-73,12-225,12h-213v454c0,405-2,455-16,460C5716,2731,5631,2731,5613,2723z"/>
		<path class="st0" d="M6442,2722c-10-7-12-117-10-518l3-509h70h70l3,509c2,401,0,511-10,518c-7,4-35,8-63,8
			C6478,2730,6449,2726,6442,2722z"/>
		<path class="st0" d="M6952,2722c-10-7-12-117-10-518l3-509h70h70l3,263c1,146,6,262,11,262s22-17,38-38c42-56,354-432,385-465
			c26-26,32-28,100-25c55,2,73,7,76,18c1,8-91,126-205,261c-115,135-213,252-220,260c-10,12-3,24,35,64c26,28,118,125,205,217
			c91,97,157,175,157,187c0,24-19,31-83,31c-51,0-53-1-117-69c-36-39-132-146-215-240c-82-93-153-170-157-170c-5-1-8,104-8,233
			c0,204-2,235-16,240C7051,2733,6967,2731,6952,2722z"/>
		<path class="st0" d="M2902,2708c-9-9-12-134-12-499c0-430,2-489,16-503c13-14,56-16,315-16h299l11,24c8,16,8,34,2,53l-10,28
			l-242,3l-241,2l2,188l3,187l30,1c17,1,110,2,208,3l178,1l-3,48l-3,47l-205,5l-205,5l-3,162l-2,163l237,2l238,3l9,26
			c5,14,6,38,2,53l-6,26h-303C2995,2720,2911,2717,2902,2708z"/>
		<path class="st0" d="M9146,2704c-14-14-16-72-16-492c0-416,2-480,16-500c15-22,17-22,313-22c319,0,321,0,321,51c0,61,10,59-251,59
			h-239v190v189l33-1c17-1,109,0,203,0l172,2l6,25c4,14,4,36,0,50l-6,25h-204h-204v165v165h228c245,0,252,1,252,51
			c0,62,16,59-310,59C9202,2720,9159,2718,9146,2704z"/>
	</g>
	<g>
		<path class="st0" d="M230,1310c0-20,7-20,6135-20s6135,0,6135,20s-7,20-6135,20S230,1330,230,1310z"/>
		<path class="st0" d="M6521,1072c-46-22-56-59-30-108l18-37l-29-27c-36-34-46-70-28-106c26-55,107-70,176-35c37,19,38,19,61,0
			c13-10,32-19,42-19c25,0,25,27,0,35c-36,11-42,29-26,68c21,51,19,77-5,77c-15,0-20-7-20-28c0-16-6-36-13-45c-11-16-16-14-55,26
			l-43,44l35,27c68,52,73,106,11,132C6571,1094,6562,1094,6521,1072z M6601,1041c20-16,22-22,12-42c-6-14-23-31-38-39
			c-25-13-28-13-41,5c-20,26-18,72,4,84C6563,1064,6575,1062,6601,1041z M6582,849c28-27,49-52,47-53c-16-13-52-26-75-26
			c-37,0-64,27-64,63c0,26,23,67,38,67C6531,900,6555,877,6582,849z"/>
		<path class="st0" d="M4325,1071c-75-18-119-79-119-166c0-68,27-121,75-145c46-24,119-26,159-5c29,15,30,18,30,91v75l-62-3
			c-75-4-96-28-24-28h46v-50c0-46-3-51-27-61c-93-35-175,55-151,165c18,85,94,119,183,82c33-14,35-14,35,5
			C4470,1061,4384,1085,4325,1071z"/>
		<path class="st0" d="M5235,1071c-73-18-112-66-122-150c-8-69,22-133,76-160c48-25,120-27,161-6c29,15,30,18,30,90v75h-65
			c-51,0-65-3-65-15c0-11,12-15,45-15h45v-50c0-46-3-51-27-61c-92-35-177,59-153,166c19,82,98,117,185,81c33-14,35-14,35,3
			C5380,1059,5292,1085,5235,1071z"/>
		<path class="st0" d="M7565,1073c-35-9-65-44-65-78c0-41,30-79,77-98c21-8,47-24,57-36c48-53-32-113-104-77c-41,20-40,20-40-2
			c0-42,102-56,157-22c36,22,50,60,37,99c-9,24-21,34-106,86c-80,49-25,120,66,85c22-8,26-7,26,10c0,14-11,22-37,29
			c-21,6-40,10-43,10C7587,1078,7576,1076,7565,1073z"/>
		<path class="st0" d="M8712,1070c-67-16-102-73-102-165c0-115,51-169,152-162c65,4,100,28,124,84c32,74,8,195-44,225
			C8807,1072,8753,1080,8712,1070z M8825,1014c14-15,27-45,31-70c14-96-21-161-92-171c-36-5-46-1-74,24c-29,26-34,37-38,90
			c-7,102,28,151,111,152C8792,1040,8807,1034,8825,1014z"/>
		<path class="st0" d="M9500,1073c-70-14-110-76-110-168c0-115,51-169,152-162c92,5,138,63,138,172c0,66-27,126-63,142
			C9584,1072,9532,1079,9500,1073z M9592,1029c46-24,63-134,30-199c-35-72-124-78-169-11c-41,61-24,183,30,209
			C9512,1042,9566,1043,9592,1029z"/>
		<path class="st0" d="M1920,906c0-159,1-166,20-166s20,7,20,142c0,86,4,138,9,133c5-6,32-68,59-140c66-170,70-170,138-4
			c76,186,73,186,74,17c0-141,1-148,20-148s20,7,20,165v165h-35c-30,0-37-5-46-27c-30-83-95-233-100-233c-3,0-28,57-55,128l-50,127
			l-37,3l-37,3V906z"/>
		<path class="st0" d="M2432,1018c-63-173-94-269-89-274c13-14,34,6,47,45l13,41h73h72l14-42c10-33,19-44,36-46c28-4,31-18-42,181
			c-48,128-55,142-79,145C2455,1071,2450,1065,2432,1018z M2505,950c14-40,25-77,25-82c0-4-25-8-55-8s-55,3-55,7c0,15,52,164,56,160
			C2478,1025,2491,990,2505,950z"/>
		<path class="st0" d="M2680,904c0-152,1-165,18-162c14,3,18,16,20,76c3,72,3,72,31,72c35,0,53-20,83-92c16-40,29-58,41-58
			c9,0,17,6,17,14c0,19-40,108-58,128c-14,16-13,20,11,42c21,19,27,35,27,65c0,59-33,81-121,81h-69V904z M2808,1024
			c51-35,14-104-55-104h-33v60v60h33C2771,1040,2796,1033,2808,1024z"/>
		<path class="st0" d="M2962,908c3-146,5-163,21-166c15-3,17,6,17,77c0,45,4,81,9,81s35-36,68-80c33-46,65-79,76-80
			c28,0,21,17-43,100l-60,79l53,63c71,84,73,88,45,88c-16-1-38-21-77-70c-30-39-58-70-62-70c-5,0-9,32-9,70c0,64-2,70-20,70
			C2960,1070,2960,1065,2962,908z"/>
		<path class="st0" d="M3240,905V739l88,3c69,2,87,6,87,18s-15,16-67,18l-68,3v59v60h55c42,0,55,3,55,15s-13,15-55,15h-55v55v55h65
			c51,0,65,3,65,15s-16,15-85,15h-85V905z"/>
		<path class="st0" d="M3457,1064c-14-15,7-24,54-24h49V889c0-138,1-150,18-147c15,3,17,20,20,151l3,147h49c38,0,50,4,50,15
			c0,12-20,15-118,15C3517,1070,3460,1067,3457,1064z"/>
		<path class="st0" d="M3750,905c0-158,1-165,20-165s20,7,20,165s-1,165-20,165S3750,1063,3750,905z"/>
		<path class="st0" d="M3890,905c0-140,2-165,15-165s15,22,15,135c0,74,3,135,8,135c4,0,39-60,77-132c61-117,73-133,95-133h25l3,163
			c2,156,2,162-17,162s-21-8-23-132l-3-131l-69,131c-64,123-71,132-97,132h-29V905z"/>
		<path class="st0" d="M4680,905V740h51c139,0,213,77,192,200c-16,94-63,130-170,130h-73V905z M4853,1000c27-31,29-37,25-103
			c-3-61-7-72-31-93c-22-18-40-24-78-24h-49v131v132l52-5C4815,1033,4829,1027,4853,1000z"/>
		<path class="st0" d="M5000,905c0-158,1-165,20-165s20,7,20,165s-1,165-20,165S5000,1063,5000,905z"/>
		<path class="st0" d="M5460,910c0-138,2-161,16-167c27-10,32,14,33,148c2,148-3,179-30,179C5461,1070,5460,1060,5460,910z"/>
		<path class="st0" d="M5560,1055c0-11,12-15,50-15h50V890c0-143,1-150,20-150s20,7,20,150v150h50c38,0,50,4,50,15
			c0,13-20,15-120,15S5560,1068,5560,1055z"/>
		<path class="st0" d="M5841,918c-30-84-57-159-59-165c-2-8,4-13,16-13c15,0,24,11,34,43l15,42l70,3l71,3l17-46c12-31,23-45,36-45
			c11,0,19,3,19,6s-25,77-56,165c-54,151-58,159-83,159S5892,1062,5841,918z M5948,947c32-85,31-87-34-87c-41,0-54,3-51,13
			c3,6,16,42,28,80c13,37,26,64,29,60C5924,1008,5936,979,5948,947z"/>
		<path class="st0" d="M6122,908l3-163h80c64,0,80,3,80,15c0,11-15,16-62,18l-63,3v144c0,139-1,145-20,145
			C6120,1070,6120,1065,6122,908z"/>
		<path class="st0" d="M6942,908l3-163l70,1c124,1,169,45,170,164c0,113-50,160-173,160h-72L6942,908z M7084,1026
			c68-28,85-151,30-216c-23-27-32-30-80-30h-54v130v130h35C7035,1040,7066,1034,7084,1026z"/>
		<path class="st0" d="M7262,908l3-163l88-3c82-3,87-2,87,18c0,18-6,20-70,20h-70v60v60h60c47,0,60,3,60,15s-13,15-60,15h-60v55v55
			h70c56,0,70,3,70,15s-17,15-90,15h-90L7262,908z"/>
		<path class="st0" d="M7777,911c-31-88-57-162-57-165s9-6,19-6c14,0,23,12,33,43l13,42h74h74l15-42c10-31,19-43,34-43
			c23,0,25-7-45,187c-48,133-54,143-77,143C7836,1070,7831,1060,7777,911z M7892,940l26-80h-59c-32,0-59,3-59,6c0,15,53,154,59,154
			C7863,1020,7878,984,7892,940z"/>
		<path class="st0" d="M8060,905c0-158,1-165,20-165c18,0,20,7,20,75v75h28c36,0,63-30,86-93c17-45,39-67,53-53c9,9-18,85-45,124
			l-23,35l27,22c39,31,39,88,0,121c-23,20-38,24-97,24h-69V905z M8201,1019c14-22,10-65-6-79c-8-6-32-14-55-17l-40-6v63v63l46-6
			C8172,1035,8196,1026,8201,1019z"/>
		<path class="st0" d="M8344,1057c-2-7-3-80-2-162c3-133,5-150,21-153c15-3,17,6,17,72v76h33c42,0,59-19,87-92c16-43,26-58,41-58
			c10,0,19,4,19,10c0,17-50,124-67,142c-10,11-12,18-5,18s21,9,32,20c29,29,27,84-5,115c-21,22-33,25-95,25
			C8371,1070,8348,1066,8344,1057z M8478,1024c25-17,29-51,9-79c-10-12-28-18-58-19l-44-1l-3,58l-3,57h38
			C8438,1040,8466,1033,8478,1024z"/>
		<path class="st0" d="M8980,905V740h80c73,0,80,2,80,20s-7,20-65,20h-65v145c0,122-2,145-15,145S8980,1045,8980,905z"/>
		<path class="st0" d="M9200,905V740h80c73,0,80,2,80,20s-7,20-60,20h-60v145c0,138-1,145-20,145S9200,1063,9200,905z"/>
		<path class="st0" d="M9850,1062c0-9,64-239,81-289c8-25,16-33,34-33c26,0,28,4,66,158c13,50,26,92,30,92c3,0,21-55,40-122
			c30-107,37-123,56-126c28-4,32,5,78,168c20,69,38,133,41,143c4,12,0,17-15,17c-22,0-20,5-67-175c-15-58-29-103-32-100
			c-3,2-21,64-41,137c-32,115-39,133-58,136c-24,4-22,8-64-163c-12-49-25-94-29-98c-8-9-18,22-60,181c-18,66-26,82-41,82
			C9859,1070,9850,1066,9850,1062z"/>
		<path class="st0" d="M10350,1058c-1-7-1-80-1-163l-1-150h89c72,0,88,3,88,15s-16,16-72,18l-73,3v59v60h60c47,0,60,3,60,15
			s-13,15-60,15h-60v55v55h70c56,0,70,3,70,15s-16,15-85,15C10374,1070,10350,1066,10350,1058z"/>
		<path class="st0" d="M10602,908l3-163l62-3c81-4,128,17,143,62c13,39,1,77-30,99l-22,15l22,30c17,22,20,37,15,60
			c-10,46-43,62-125,62h-70L10602,908z M10734,1027c21-16,24-60,6-82c-8-9-29-15-56-15h-44v55v55h38
			C10699,1040,10724,1034,10734,1027z M10757,877c19-19,20-64,2-82c-8-8-36-15-64-16l-50-3l-3,63l-3,64l51-5
			C10718,895,10748,886,10757,877z"/>
	</g>
</g>
</svg>
