<?xml version="1.0" encoding="utf-8"?>
<!-- Generator: Adobe Illustrator 25.0.0, SVG Export Plug-In . SVG Version: 6.00 Build 0)  -->
<svg version="1.1" id="Capa_1" xmlns="http://www.w3.org/2000/svg" xmlns:xlink="http://www.w3.org/1999/xlink" x="0px" y="0px"
	 viewBox="0 0 457 302" style="enable-background:new 0 0 457 302;" xml:space="preserve">
<style type="text/css">
	.st0{clip-path:url(#SVGID_2_);}
	.st1{fill:none;stroke:url(#SVGID_5_);stroke-miterlimit:10;}
	.st2{fill:#FFFFFF;stroke:url(#SVGID_6_);stroke-miterlimit:10;}
	.st3{fill:#141859;stroke:#141859;stroke-width:0.75;stroke-miterlimit:10;}
	.st4{fill:none;stroke:#141859;stroke-width:4;stroke-linecap:round;stroke-miterlimit:10;}
	.st5{fill:#FFFFFF;stroke:#FFFFFF;stroke-width:0.75;stroke-miterlimit:10;}
	.st6{fill:#FFFFFF;stroke:#FFFFFF;stroke-width:4;stroke-linecap:round;stroke-miterlimit:10;}
	.st7{fill:#FFFFFF;}
	.st8{clip-path:url(#SVGID_8_);}
	.st9{fill:none;stroke:url(#SVGID_11_);stroke-miterlimit:10;}
	.st10{clip-path:url(#SVGID_13_);}
	.st11{fill:none;stroke:url(#SVGID_16_);stroke-miterlimit:10;}
	.st12{clip-path:url(#SVGID_18_);}
	.st13{fill:none;stroke:url(#SVGID_21_);stroke-miterlimit:10;}
	.st14{clip-path:url(#SVGID_23_);}
	.st15{fill:none;stroke:url(#SVGID_26_);stroke-miterlimit:10;}
	.st16{clip-path:url(#SVGID_28_);}
	.st17{fill:none;stroke:url(#SVGID_31_);stroke-miterlimit:10;}
	.st18{clip-path:url(#SVGID_33_);}
	.st19{fill:none;stroke:url(#SVGID_36_);stroke-miterlimit:10;}
	.st20{clip-path:url(#SVGID_38_);}
	.st21{fill:none;stroke:url(#SVGID_41_);stroke-miterlimit:10;}
	.st22{clip-path:url(#SVGID_43_);}
	.st23{fill:none;stroke:url(#SVGID_46_);stroke-miterlimit:10;}
	.st24{fill:#442470;}
	.st25{fill:#3F3D56;}
	.st26{fill:#F2F2F2;}
	.st27{fill:none;stroke:#3F3D56;stroke-width:2;stroke-miterlimit:10;}
	.st28{fill:#5D2C92;}
	.st29{fill:#575A89;}
	.st30{fill:#FFB9B9;}
	.st31{opacity:0.1;enable-background:new    ;}
	.st32{fill:#2F2E41;}
	.st33{fill:#FFFFFF;stroke:#FFFFFF;stroke-width:2.000000e-02;stroke-miterlimit:10;}
	.st34{fill:#380E6D;}
	.st35{clip-path:url(#SVGID_48_);}
	.st36{fill:none;stroke:url(#SVGID_51_);stroke-width:15;stroke-miterlimit:10;}
	.st37{opacity:0;fill:#5D2C92;enable-background:new    ;}
	.st38{opacity:0.1;}
	.st39{fill:#65617D;}
	.st40{opacity:0.2;enable-background:new    ;}
	.st41{fill:#D4DFEC;}
	.st42{fill:#FBBEBE;}
	.st43{fill:url(#SVGID_52_);}
	.st44{fill:none;stroke:#5D2C92;stroke-width:2;stroke-miterlimit:10;}
	.st45{fill:url(#SVGID_53_);}
	.st46{fill:#E3E1E5;}
	.st47{fill:#FFB8B8;}
	.st48{fill-rule:evenodd;clip-rule:evenodd;fill:#3F3D56;}
	.st49{fill:#CCCCCC;}
	.st50{fill:#E6E6E6;}
	.st51{fill:#E2E2E2;}
</style>
<g>
	<path class="st46" d="M262.9,279.4c-3.2,2.3-6.7,4.2-10.4,5.7c-1,0.4-1.9,0.7-2.9,1.1h-50.4c-0.2-0.4-0.4-0.7-0.6-1.1
		c-4.1-7.3-7.8-14.9-8.8-23.2c-1.3-9.9,2.3-21.2,11-26c1.1-0.6,2.4-1.1,3.6-1.5c0.5-0.2,1.1-0.3,1.6-0.4
		c10.2-2.3,20.3,4.2,22.5,14.4c0.8,3.4,0.6,6.9-0.6,10.2c7.4-7.6,6-19.9,3.5-30.2c-2.6-10.3-5.7-21.8-0.5-31c2.9-5.1,8-8.3,13.7-9.6
		c0.2,0,0.4-0.1,0.5-0.1c6.8-1.4,13.9-0.1,19.8,3.5c10.9,6.9,16.5,19.9,18.4,32.7C286.3,244.3,279.8,267.3,262.9,279.4z"/>
	<path class="st7" d="M209.9,240.5c4,8.2,5.3,17.5,3.7,26.4c-1.2,6.6-4,12.8-8,18.1c-0.3,0.4-0.6,0.7-0.8,1.1h-2
		c0.3-0.3,0.6-0.7,0.9-1.1c7.4-9.2,10.5-21.2,8.6-32.9c-1.2-6.5-3.8-12.6-7.8-17.9c0.5-0.2,1.1-0.3,1.6-0.4
		C207.4,236,208.8,238.2,209.9,240.5z"/>
	<path class="st7" d="M258.1,246.4c-0.4,4.5-1.5,9-3.2,13.2c-1.6,3.7-3.7,7.2-6.3,10.3c-5.3,6.4-12.4,11.2-20,14.4
		c-0.6,0.2-1.1,0.5-1.7,0.7c-1,0.4-2,0.7-3,1.1h-5.4c1.3-0.3,2.6-0.7,3.8-1.1c3-0.9,5.9-2.1,8.8-3.5c7.2-3.4,13.4-8.5,18.2-14.9
		c5.1-7,7.3-15.5,7.7-24.1c0.4-9.2-0.8-18.6-2.9-27.5c-2.1-9.2-5.4-18-9.7-26.4c-0.2-0.4-0.1-0.9,0.3-1.1c0.2-0.1,0.3-0.1,0.5-0.1
		c0.2,0,0.3,0.2,0.4,0.3c0.5,1,1.1,2.1,1.6,3.1c4.2,8.7,7.2,17.9,9.1,27.4C258.1,227.6,259.1,237.1,258.1,246.4z"/>
	<path class="st25" d="M34,133.8c-12.4,0-22.5-10.1-22.5-22.5S21.5,88.8,34,88.8s22.5,10.1,22.5,22.5
		C56.5,123.7,46.4,133.8,34,133.8z M34,89.8c-11.9,0-21.5,9.6-21.5,21.5s9.6,21.5,21.5,21.5s21.5-9.6,21.5-21.5
		C55.4,99.4,45.8,89.8,34,89.8z"/>
	<path class="st25" d="M125.2,61.4c-12.4,0-22.5-10.1-22.5-22.5s10.1-22.5,22.5-22.5s22.5,10.1,22.5,22.5
		C147.7,51.3,137.6,61.4,125.2,61.4z M125.2,17.4c-11.9,0-21.5,9.6-21.5,21.5s9.6,21.5,21.5,21.5s21.5-9.6,21.5-21.5
		C146.6,27,137,17.4,125.2,17.4z"/>
	<path class="st25" d="M222.8,73.5c-12.4,0-22.5-10.1-22.5-22.5s10.1-22.5,22.5-22.5c12.4,0,22.5,10.1,22.5,22.5
		C245.4,63.4,235.3,73.4,222.8,73.5z M222.8,29.5c-11.9,0-21.5,9.6-21.5,21.5s9.6,21.5,21.5,21.5c11.9,0,21.5-9.6,21.5-21.5
		C244.3,39.1,234.7,29.5,222.8,29.5z"/>
	<path class="st25" d="M326.9,62.5c-12.4,0-22.5-10.1-22.5-22.5s10.1-22.5,22.5-22.5s22.5,10.1,22.5,22.5
		C349.5,52.4,339.4,62.4,326.9,62.5z M326.9,18.5c-11.9,0-21.5,9.6-21.5,21.5s9.6,21.5,21.5,21.5s21.5-9.6,21.5-21.5
		C348.4,28.1,338.8,18.5,326.9,18.5z"/>
	<path class="st25" d="M422.5,116.7c-12.4,0-22.5-10.1-22.5-22.5s10.1-22.5,22.5-22.5S445,81.7,445,94.1
		C445,106.6,434.9,116.6,422.5,116.7z M422.5,72.7c-11.9,0-21.5,9.6-21.5,21.5s9.6,21.5,21.5,21.5s21.5-9.6,21.5-21.5
		C443.9,82.3,434.3,72.7,422.5,72.7z"/>
	<path class="st25" d="M138.1,32.7l2.7-0.5c0,0-2.3,2.5-2.7,2.7l0,0c0,0.5,0,1.1,0,1.6c-5.2,22.1-24.1,12.3-24.1,12.3
		c6.9,0.2,7.5-2.7,7.5-2.7c-4-0.6-4.8-3.2-4.8-3.2c0.7,0.4,1.7,0.2,2.1-0.5c-4.3-1.1-3.8-5.4-3.8-5.4c0.8,0.6,1.7,0.9,2.6,1
		c-0.5-0.6-4.6-5.5-2.1-8c0,0,3,5.4,10.9,5.8l0.5-0.1c-0.1-0.4-0.1-0.8-0.1-1.2c0-3.1,2.5-5.6,5.6-5.6l0,0c3.8,0,4.6,2.1,4.6,2.1
		l2.7-1.6C139.7,29.5,139.4,32.1,138.1,32.7z"/>
	<polygon class="st47" points="309.4,271.5 315.3,274.4 329.3,253 320.6,248.8 	"/>
	<path class="st32" d="M308.9,268.9l11.6,5.7l0,0c4.1,2,5.8,7,3.8,11c0,0,0,0,0,0l-0.1,0.2l-19-9.3L308.9,268.9z"/>
	<polygon class="st47" points="368.1,281.3 374.6,281.3 377.7,256.1 368.1,256.1 	"/>
	<path class="st32" d="M365.9,277l13.1,0h0.1c4.6,0,8.3,3.7,8.3,8.3v0.1v0.3l-21.5,0L365.9,277z"/>
	<circle class="st47" cx="353.8" cy="93.3" r="13.2"/>
	<path class="st32" d="M366.9,273.3c-1.3,0-2.4-1-2.4-2.3l-5.1-67.8c0-0.4-0.4-0.8-0.8-0.8c-0.3,0-0.6,0.2-0.7,0.4L325.3,265
		c-0.6,1.2-2,1.6-3.2,1l-9.1-4.5c-1.2-0.6-1.7-2-1.1-3.2l19.4-39.4l12.9-29.5c5-9.8,10.3-14.8,16.1-15.4c6-0.6,12.5,3.6,19.7,12.7
		l-0.2,0.1l0.5,0.1v82.8c-1.3,1.2-2.3,2.3-3.5,2.4l-9.8,1.2C367.1,273.3,367,273.3,366.9,273.3z"/>
	<path class="st47" d="M340.2,194.1c2.7-1.7,3.6-5.2,1.9-7.9c-0.2-0.3-0.4-0.6-0.6-0.8l2-52.5l-9.7,1.2l-0.8,51.1
		c-2.2,2.3-2.2,6,0.1,8.2C334.9,195.2,337.9,195.5,340.2,194.1L340.2,194.1z"/>
	<path class="st28" d="M346,142.2l-13-1.5c-1.4-0.2-2.4-1.4-2.3-2.9c0-0.1,0-0.3,0.1-0.4l3.3-12.6c0.5-3.9,4-6.7,8-6.3
		c3.9,0.5,6.7,4,6.3,7.9l0.4,13c0,1.4-1.1,2.6-2.5,2.7C346.3,142.2,346.2,142.2,346,142.2L346,142.2z"/>
	<path class="st47" d="M401.9,109.1c-0.1,0.3-0.1,0.6-0.1,0.9l-23.1,13.3l-5.6-3.2l-6,7.8l9.4,6.7c1.6,1.1,3.7,1.1,5.2-0.1
		l23.8-18.8c2.9,1.1,6.2-0.4,7.2-3.3c1.1-2.9-0.4-6.2-3.3-7.2c-2.9-1.1-6.2,0.4-7.2,3.3C402,108.6,402,108.9,401.9,109.1
		L401.9,109.1z"/>
	<path class="st28" d="M377.9,123.9l-7.5,9.7c-0.8,1.1-2.3,1.3-3.4,0.4c-0.1-0.1-0.2-0.2-0.3-0.2l-8.4-8.8c-2.9-2.3-3.4-6.5-1.2-9.4
		c2.3-2.9,6.5-3.4,9.4-1.2l10.6,5.9c1.2,0.7,1.6,2.1,0.9,3.3C378.1,123.7,378,123.8,377.9,123.9L377.9,123.9z"/>
	<path class="st28" d="M384,190.7l-14.3-69.7c-1.4-6.9-8-11.4-14.9-10.3l-4.8,0.8c-3.3,0.6-6.3,2.4-8.3,5.2l0,0
		c-3.1,4.4-4.1,10-2.7,15.2l7.9,28.3l-5.9,30.3c-0.2,1.2,0.5,2.3,1.7,2.5c0.2,0,0.5,0.1,0.7,0c2.9-0.4,7.8-1,13.3-1.3l3-11.6
		l1.2,11.4c6.8-0.2,14.2,0.1,20.3,1.7c1.1,0.3,2.3-0.4,2.6-1.5C384.1,191.4,384.1,191.1,384,190.7z"/>
	<path class="st32" d="M358.9,90.4c3.4,2.3,7.8,4.7,11.3,2.2c2.3-1.6,3-4.6,2.1-7.3c-1.7-4.7-6.2-6.8-10.6-8.4
		c-5.7-2.1-11.8-3.7-17.7-2.2c-5.8,1.5-11,7.1-9.9,13.1c0.8,4.8,5.3,8.7,4.7,13.5c-0.6,4.8-6.1,7.4-10.9,8.2
		c-4.8,0.9-10.2,1.1-13.6,4.6c-4.4,4.4-3.3,12.3,0.8,16.9c4.1,4.6,10.4,6.8,16.4,8.2c8,1.9,16.7,2.9,24.3-0.3
		c7.6-3.1,13.6-11.6,11.3-19.6c-0.9-3.4-3.1-6.2-5.3-9s-4.3-5.6-5.1-9c-0.7-2.8-0.2-6.1,1.7-8.2C359.3,92.5,359.4,91.3,358.9,90.4
		L358.9,90.4z"/>
	<path class="st25" d="M228.8,39.6c3.1,0,5.6,2.5,5.6,5.6v11.3c0,3.1-2.5,5.6-5.6,5.6h-11.3c-3.1,0-5.6-2.5-5.6-5.6V45.2
		c0-3.1,2.5-5.6,5.6-5.6h11.5 M229.2,37.4h-11.4c-4.4,0-8,3.6-8,8v11.4c0,4.4,3.6,8,8,8h11.4c4.4,0,8-3.6,8-8V45.4
		C237.1,41,233.6,37.5,229.2,37.4z"/>
	<path class="st25" d="M230.7,45.5c-1.1,0-2-1.1-1.6-2.3c0.2-0.4,0.5-0.8,1-1c1.5-0.6,2.9,1,2.1,2.5
		C231.9,45.2,231.3,45.5,230.7,45.5L230.7,45.5z"/>
	<path class="st25" d="M223.3,46.6c2.5,0,4.5,2,4.5,4.5c0,2.5-2,4.5-4.5,4.5s-4.5-2-4.5-4.5C218.8,48.6,220.8,46.6,223.3,46.6
		L223.3,46.6 M223.3,44.3c-3.8,0-6.8,3-6.8,6.8c0,3.8,3,6.8,6.8,6.8c3.8,0,6.8-3,6.8-6.8c0,0,0,0,0,0
		C230.1,47.3,227.1,44.3,223.3,44.3L223.3,44.3z"/>
	<polygon class="st47" points="98.7,279.1 92.3,277.6 95.1,252.2 104.5,254.4 	"/>
	<path class="st32" d="M98.9,285.7l-20.6-4.9l0.1-0.3c1-4.4,5.5-7.2,9.9-6.1c0,0,0,0,0,0l0,0l12.6,3L98.9,285.7z"/>
	<polygon class="st47" points="123.9,279.2 117.4,279.2 114.3,254 123.9,254 	"/>
	<path class="st32" d="M125.5,285.6l-21.5,0v-0.3c0-4.6,3.7-8.3,8.3-8.3h0.1h0l13.1,0L125.5,285.6z"/>
	<path class="st47" d="M159.2,179c1.7-2.7,0.8-6.3-1.9-7.9c-0.3-0.2-0.6-0.3-0.9-0.5l-19.3-48.8l-10.7,6.5l22.3,46
		c-1,3.1,0.7,6.3,3.8,7.3C155,182.3,157.8,181.3,159.2,179L159.2,179z"/>
	<path class="st28" d="M141.2,129.8l-12.2,4.5c-1.3,0.5-2.8-0.2-3.3-1.5c0-0.1-0.1-0.2-0.1-0.4l-2.7-12.7c-1.4-3.7,0.6-7.8,4.3-9.2
		c3.7-1.3,7.8,0.6,9.2,4.3l6.2,11.4c0.7,1.3,0.2,2.8-1,3.5C141.5,129.7,141.4,129.8,141.2,129.8L141.2,129.8z"/>
	<path class="st32" d="M123.3,270.2C123.3,270.2,123.3,270.2,123.3,270.2l-9.4-0.4c-1.3,0-2.3-1.1-2.3-2.4l0.7-51.5
		c0-0.4-0.3-0.8-0.8-0.8c-0.4,0-0.8,0.3-0.8,0.7l-5.4,51.5c-0.1,1.1-0.9,1.9-2,2.1l0,0l-8.7-0.7c-1.3,0.2-2.5-0.7-2.7-2
		c0-0.1,0-0.3,0-0.4l0.5-87.3l42.9,2.7l-9.5,86.2C125.6,269.2,124.6,270.2,123.3,270.2z"/>
	<circle class="st47" cx="115.4" cy="89.6" r="13.2"/>
	<path class="st28" d="M133,185.6c-0.1,0-0.1,0-0.2,0l-39.7-2.9c-1.3-0.1-2.3-1.2-2.2-2.5l1-49.9c-0.3-12.4,9.6-22.7,22-23
		c12.4-0.3,22.7,9.6,23,22c0,0.8,0,1.7-0.1,2.5c-0.7,7.7-1.2,41.2-1.4,51.4C135.4,184.6,134.3,185.6,133,185.6z"/>
	<path class="st47" d="M62.2,104.4c0.1,0.3,0.1,0.6,0.1,0.9l23.1,13.3l5.6-3.2l6,7.8l-9.4,6.7c-1.6,1.1-3.7,1.1-5.2-0.1L58.7,111
		c-2.9,1.1-6.2-0.4-7.2-3.3c-1.1-2.9,0.4-6.2,3.3-7.2c2.9-1.1,6.2,0.4,7.2,3.3C62.1,104,62.2,104.2,62.2,104.4L62.2,104.4z"/>
	<path class="st28" d="M85.7,117.3c0.1-0.7,0.6-1.3,1.2-1.6l10.6-5.9c2.9-2.3,7.1-1.7,9.4,1.2c2.2,2.9,1.7,7.1-1.2,9.4l-8.4,8.8
		c-0.9,1-2.5,1-3.4,0.1c-0.1-0.1-0.2-0.2-0.2-0.3l-7.5-9.7C85.8,118.7,85.6,118,85.7,117.3z"/>
	<path class="st32" d="M122.2,100c-4.1,0-7.9-2.2-10.1-5.7c-0.1-0.2-0.8-1.1-1.5-2.2c-2.1-3-2.5-3.8-2.6-3.9c-0.6-1.4-2.3-2-3.7-2.2
		c-0.3,0-0.5-0.1-0.8-0.1c-2-0.3-4-0.5-5.1-2.7c-0.8-1.6-2.1-8-1.1-9.6c1.3-2,3.7-1.3,6.1-0.7c1.5,0.4,3.1,0.8,4.3,0.5
		c5.4-1.1,11.6-2.4,17,0.9c4.3,2.6,6.9,7.6,6.8,13c-0.1,5.8-2.7,10.3-6.7,12.2l-0.8,0.2l-0.5,0.1C123.1,100,122.6,100,122.2,100z"/>
	<path class="st25" d="M423.3,79.5c-8.2,0-14.8,6.6-14.8,14.8c0,5.9,3.5,11.2,8.8,13.5c-0.1-1.1,0-2.3,0.3-3.4
		c0.3-1.2,1.9-8.1,1.9-8.1c-0.3-0.7-0.5-1.5-0.5-2.3c0-2.2,1.3-3.8,2.9-3.8c1.3,0,2,1,2,2.2c0,1.4-0.9,3.4-1.3,5.2
		c-0.3,1.2,0.4,2.5,1.7,2.8c0.2,0.1,0.5,0.1,0.7,0.1c2.8,0,4.7-3.6,4.7-7.9c0-3.2-2.2-5.7-6.1-5.7c-4.5,0-7.3,3.3-7.3,7.1
		c0,1.1,0.3,2.1,1,2.9c0.2,0.2,0.3,0.5,0.2,0.8c-0.1,0.3-0.2,0.9-0.3,1.2c0,0.3-0.3,0.5-0.6,0.4c-0.1,0-0.1,0-0.2-0.1
		c-2.1-0.8-3-3.1-3-5.6c0-4.2,3.5-9.2,10.6-9.2c5.6,0,9.4,4.1,9.4,8.5c0,5.8-3.2,10.1-8,10.1c-1.6,0-3.1-0.9-3.6-1.8
		c0,0-0.9,3.4-1,4.1c-0.3,1.1-0.8,2.2-1.5,3.2c7.8,2.3,16.1-2.2,18.4-10s-2.2-16.1-10-18.4C426.1,79.7,424.7,79.5,423.3,79.5
		L423.3,79.5z"/>
	<path class="st25" d="M340,31l-19-5.8c-1-0.4-2.1,0.2-2.5,1.2c0,0,0,0,0,0l-5.9,19.1c-0.3,1.1,0.3,2.2,1.3,2.6l19,5.8
		c1.1,0.3,2.1-0.3,2.4-1.4l5.9-19.1c0.3-1-0.2-2-1.2-2.3C340.1,31.1,340.1,31.1,340,31z M320.3,45.8l-3.3-1l3.1-10.1l3.3,1
		L320.3,45.8z M322.4,33.6L322.4,33.6c-1-0.3-1.5-1.4-1.2-2.3c0.3-1,1.3-1.5,2.3-1.2c1,0.3,1.5,1.3,1.2,2.3
		C324.4,33.4,323.3,33.9,322.4,33.6z M332.2,49.4l-3.3-1l1.7-5.5c0.4-1.3,0.2-2.4-1-2.7c-0.8-0.2-1.6,0-2,0.7
		c-0.2,0.2-0.3,0.5-0.4,0.8l-1.8,5.8l-3.3-1l3.1-10.1l3.3,1l-0.4,1.4c0.9-0.9,2.3-1.1,3.5-0.7c2.1,0.7,3.3,2.6,2.4,5.6L332.2,49.4z"
		/>
	<path class="st48" d="M49.5,111.2c0-9.5-9.3-16.9-19.7-14.3c-5.1,1.3-9.2,5.2-10.7,10.2c-2.5,9,3.6,17.4,12.5,18.8v-10.4h-3.8v-4.3
		h3.8V108c0-3.7,2.3-5.7,5.7-5.7c1.1,0,2.3,0.1,3.4,0.3v3.9h-1.9c-1.8,0-2.4,1.1-2.4,2.3v2.5h4.3l-0.7,4.3h-3.6v10.4
		C44,124.8,49.5,118.5,49.5,111.2L49.5,111.2z"/>
	<path class="st25" d="M444.7,285.6c0,0.3-0.2,0.5-0.5,0.5H11.7c-0.3,0-0.5-0.2-0.5-0.5s0.2-0.5,0.5-0.5h432.5
		C444.5,285.1,444.7,285.3,444.7,285.6z"/>
</g>
</svg>
