<?xml version="1.0" encoding="utf-8"?>
<!-- Generator: Adobe Illustrator 25.0.0, SVG Export Plug-In . SVG Version: 6.00 Build 0)  -->
<svg version="1.1" id="Capa_1" xmlns="http://www.w3.org/2000/svg" xmlns:xlink="http://www.w3.org/1999/xlink" x="0px" y="0px"
	 viewBox="0 0 463 330" style="enable-background:new 0 0 463 330;" xml:space="preserve">
<style type="text/css">
	.st0{clip-path:url(#SVGID_2_);}
	.st1{fill:none;stroke:url(#SVGID_5_);stroke-miterlimit:10;}
	.st2{fill:#FFFFFF;stroke:url(#SVGID_6_);stroke-miterlimit:10;}
	.st3{fill:#141859;stroke:#141859;stroke-width:0.75;stroke-miterlimit:10;}
	.st4{fill:none;stroke:#141859;stroke-width:4;stroke-linecap:round;stroke-miterlimit:10;}
	.st5{fill:#FFFFFF;stroke:#FFFFFF;stroke-width:0.75;stroke-miterlimit:10;}
	.st6{fill:#FFFFFF;stroke:#FFFFFF;stroke-width:4;stroke-linecap:round;stroke-miterlimit:10;}
	.st7{fill:#FFFFFF;}
	.st8{clip-path:url(#SVGID_8_);}
	.st9{fill:none;stroke:url(#SVGID_11_);stroke-miterlimit:10;}
	.st10{clip-path:url(#SVGID_13_);}
	.st11{fill:none;stroke:url(#SVGID_16_);stroke-miterlimit:10;}
	.st12{clip-path:url(#SVGID_18_);}
	.st13{fill:none;stroke:url(#SVGID_21_);stroke-miterlimit:10;}
	.st14{clip-path:url(#SVGID_23_);}
	.st15{fill:none;stroke:url(#SVGID_26_);stroke-miterlimit:10;}
	.st16{clip-path:url(#SVGID_28_);}
	.st17{fill:none;stroke:url(#SVGID_31_);stroke-miterlimit:10;}
	.st18{clip-path:url(#SVGID_33_);}
	.st19{fill:none;stroke:url(#SVGID_36_);stroke-miterlimit:10;}
	.st20{clip-path:url(#SVGID_38_);}
	.st21{fill:none;stroke:url(#SVGID_41_);stroke-miterlimit:10;}
	.st22{clip-path:url(#SVGID_43_);}
	.st23{fill:none;stroke:url(#SVGID_46_);stroke-miterlimit:10;}
	.st24{fill:#442470;}
	.st25{fill:#3F3D56;}
	.st26{fill:#F2F2F2;}
	.st27{fill:none;stroke:#3F3D56;stroke-width:2;stroke-miterlimit:10;}
	.st28{fill:#5D2C92;}
	.st29{fill:#575A89;}
	.st30{fill:#FFB9B9;}
	.st31{opacity:0.1;enable-background:new    ;}
	.st32{fill:#2F2E41;}
	.st33{fill:#FFFFFF;stroke:#FFFFFF;stroke-width:2.000000e-02;stroke-miterlimit:10;}
	.st34{fill:#380E6D;}
	.st35{clip-path:url(#SVGID_48_);}
	.st36{fill:none;stroke:url(#SVGID_51_);stroke-width:15;stroke-miterlimit:10;}
	.st37{opacity:0;fill:#5D2C92;enable-background:new    ;}
	.st38{opacity:0.1;}
	.st39{fill:#65617D;}
	.st40{opacity:0.2;enable-background:new    ;}
	.st41{fill:#D4DFEC;}
	.st42{fill:#FBBEBE;}
	.st43{fill:url(#SVGID_52_);}
	.st44{fill:none;stroke:#5D2C92;stroke-width:2;stroke-miterlimit:10;}
	.st45{fill:url(#SVGID_53_);}
	.st46{fill:#E3E1E5;}
	.st47{fill:#FFB8B8;}
	.st48{fill-rule:evenodd;clip-rule:evenodd;fill:#3F3D56;}
	.st49{fill:#CCCCCC;}
	.st50{fill:#E6E6E6;}
	.st51{fill:#E2E2E2;}
</style>
<g>
	<path class="st49" d="M229.5,306.4c-69.6,0-125.9-56.4-125.9-125.9c0-69.6,56.4-125.9,125.9-125.9c69.6,0,125.9,56.4,125.9,125.9
		c0,33.4-13.3,65.4-36.9,89C295,293.2,262.9,306.5,229.5,306.4z M229.5,55.5c-68.9,0-125,56.1-125,125s56.1,125,125,125
		s125-56.1,125-125S298.4,55.5,229.5,55.5L229.5,55.5z"/>
	<rect x="182" y="162" class="st32" width="94.4" height="126.9"/>
	<rect x="165.6" y="158.1" class="st25" width="126.9" height="50.4"/>
	<rect x="165.6" y="214.3" class="st25" width="126.9" height="50.4"/>
	<rect x="165.6" y="270.5" class="st25" width="126.9" height="50.4"/>
	<rect x="165.6" y="179.4" class="st28" width="126.9" height="7.7"/>
	<rect x="165.6" y="235.6" class="st28" width="126.9" height="7.7"/>
	<rect x="165.6" y="291.8" class="st28" width="126.9" height="7.7"/>
	<circle class="st28" cx="267.8" cy="165.2" r="2.9"/>
	<circle class="st28" cx="277.9" cy="165.2" r="2.9"/>
	<circle class="st28" cx="288.1" cy="165.2" r="2.9"/>
	<circle class="st28" cx="267.8" cy="220.4" r="2.9"/>
	<circle class="st28" cx="277.9" cy="220.4" r="2.9"/>
	<circle class="st28" cx="288.1" cy="220.4" r="2.9"/>
	<circle class="st28" cx="267.8" cy="275.6" r="2.9"/>
	<circle class="st28" cx="277.9" cy="275.6" r="2.9"/>
	<circle class="st28" cx="288.1" cy="275.6" r="2.9"/>
	<rect x="14" y="320.4" class="st25" width="430" height="1"/>
	<path class="st50" d="M131.2,145v89.6c0,3.9-3.2,7.1-7.1,7.1H88.9c-3.9,0-7.1-3.2-7.1-7.1V145c0-4.1,3.2-7.4,7.1-7.4h4.3
		c-0.7,1.8,0.1,3.9,1.9,4.6c0.4,0.2,0.8,0.3,1.3,0.3h20c1.9,0,3.4-1.6,3.4-3.5c0-0.5-0.1-0.9-0.2-1.3h4.6
		C128,137.6,131.2,141,131.2,145z"/>
	<rect x="84.2" y="155.1" class="st7" width="44.5" height="62"/>
	<rect x="96.8" y="197.7" class="st50" width="17.9" height="1"/>
	<rect x="96.8" y="201.1" class="st28" width="27.6" height="1"/>
	<rect x="96.8" y="205" class="st50" width="21.8" height="1"/>
	<rect x="96.8" y="208.3" class="st50" width="12.6" height="1"/>
	<rect x="96.8" y="211.7" class="st50" width="18.9" height="1"/>
	<rect x="89.1" y="197.2" class="st50" width="1.9" height="1.9"/>
	<rect x="89.1" y="200.6" class="st28" width="1.9" height="1.9"/>
	<rect x="89.1" y="204.5" class="st50" width="1.9" height="1.9"/>
	<rect x="89.1" y="207.9" class="st50" width="1.9" height="1.9"/>
	<rect x="89.1" y="211.2" class="st50" width="1.9" height="1.9"/>
	<rect x="97.8" y="162.8" class="st50" width="17.9" height="17.9"/>
	<rect x="169.4" y="13.7" class="st50" width="119.1" height="76"/>
	<rect x="178.6" y="35" class="st7" width="98.8" height="37.3"/>
	<rect x="196.6" y="41.3" class="st50" width="23.7" height="1.5"/>
	<rect x="196.6" y="46.1" class="st28" width="36.8" height="1.5"/>
	<rect x="196.6" y="51" class="st50" width="28.6" height="1.5"/>
	<rect x="196.6" y="55.8" class="st50" width="16.9" height="1.5"/>
	<rect x="196.6" y="60.2" class="st50" width="25.2" height="1.5"/>
	<rect x="185.4" y="40.8" class="st50" width="2.9" height="2.9"/>
	<rect x="185.4" y="45.6" class="st28" width="2.9" height="2.9"/>
	<rect x="185.4" y="50.5" class="st50" width="2.9" height="2.9"/>
	<rect x="185.4" y="54.8" class="st50" width="2.9" height="2.9"/>
	<rect x="185.4" y="59.7" class="st50" width="2.9" height="2.9"/>
	<rect x="248.4" y="39.8" class="st50" width="24.2" height="24.2"/>
	<rect x="169.4" y="13.7" class="st28" width="119.1" height="4.8"/>
	<circle class="st7" cx="173.2" cy="16.1" r="1"/>
	<circle class="st7" cx="176.8" cy="16.1" r="1"/>
	<circle class="st7" cx="180.3" cy="16.1" r="1"/>
	<rect x="339.4" y="156.5" class="st50" width="29.1" height="15"/>
	<rect x="339.4" y="210.3" class="st50" width="29.1" height="15"/>
	<circle class="st50" cx="353.8" cy="190.7" r="24.2"/>
	<circle class="st7" cx="353.8" cy="190.7" r="18.9"/>
	<rect x="347.6" y="185.6" class="st51" width="14.5" height="1"/>
	<rect x="347.6" y="188.5" class="st28" width="22.8" height="1"/>
	<rect x="347.6" y="191.4" class="st51" width="17.9" height="1"/>
	<rect x="347.6" y="194.3" class="st51" width="10.7" height="1"/>
	<rect x="347.6" y="197.2" class="st51" width="15.5" height="1"/>
	<rect x="340.9" y="185.6" class="st51" width="1.5" height="1.5"/>
	<rect x="340.9" y="188.5" class="st28" width="1.5" height="1.5"/>
	<rect x="340.9" y="191.4" class="st51" width="1.5" height="1.5"/>
	<rect x="340.9" y="194.3" class="st51" width="1.5" height="1.5"/>
	<rect x="340.9" y="196.7" class="st51" width="1.5" height="1.5"/>
</g>
</svg>
