<?xml version="1.0" encoding="utf-8"?>
<!-- Generator: Adobe Illustrator 25.0.0, SVG Export Plug-In . SVG Version: 6.00 Build 0)  -->
<svg version="1.1" id="Capa_1" xmlns="http://www.w3.org/2000/svg" xmlns:xlink="http://www.w3.org/1999/xlink" x="0px" y="0px"
	 viewBox="0 0 853 645" style="enable-background:new 0 0 853 645;" xml:space="preserve">
<style type="text/css">
	.st0{clip-path:url(#SVGID_2_);}
	.st1{fill:none;stroke:url(#SVGID_3_);stroke-miterlimit:10;}
	.st2{fill:#FFFFFF;stroke:url(#SVGID_4_);stroke-miterlimit:10;}
	.st3{fill:#141859;stroke:#141859;stroke-width:0.75;stroke-miterlimit:10;}
	.st4{fill:none;stroke:#141859;stroke-width:4;stroke-linecap:round;stroke-miterlimit:10;}
	.st5{fill:#FFFFFF;stroke:#FFFFFF;stroke-width:0.75;stroke-miterlimit:10;}
	.st6{fill:#FFFFFF;stroke:#FFFFFF;stroke-width:4;stroke-linecap:round;stroke-miterlimit:10;}
	.st7{fill:#FFFFFF;}
	.st8{clip-path:url(#SVGID_5_);}
	.st9{fill:none;stroke:url(#SVGID_6_);stroke-miterlimit:10;}
	.st10{clip-path:url(#SVGID_8_);}
	.st11{fill:none;stroke:url(#SVGID_9_);stroke-miterlimit:10;}
	.st12{clip-path:url(#SVGID_10_);}
	.st13{fill:none;stroke:url(#SVGID_11_);stroke-miterlimit:10;}
	.st14{clip-path:url(#SVGID_13_);}
	.st15{fill:none;stroke:url(#SVGID_14_);stroke-miterlimit:10;}
	.st16{clip-path:url(#SVGID_15_);}
	.st17{fill:none;stroke:url(#SVGID_16_);stroke-miterlimit:10;}
	.st18{clip-path:url(#SVGID_18_);}
	.st19{fill:none;stroke:url(#SVGID_19_);stroke-miterlimit:10;}
	.st20{clip-path:url(#SVGID_20_);}
	.st21{fill:none;stroke:url(#SVGID_21_);stroke-miterlimit:10;}
	.st22{clip-path:url(#SVGID_23_);}
	.st23{fill:none;stroke:url(#SVGID_24_);stroke-miterlimit:10;}
	.st24{fill:#442470;}
	.st25{fill:#3F3D56;}
	.st26{fill:#F2F2F2;}
	.st27{fill:none;stroke:#3F3D56;stroke-width:2;stroke-miterlimit:10;}
	.st28{fill:#5D2C92;}
	.st29{fill:#575A89;}
	.st30{fill:#FFB9B9;}
	.st31{opacity:0.1;enable-background:new    ;}
	.st32{fill:#2F2E41;}
	.st33{fill:#FFFFFF;stroke:#FFFFFF;stroke-width:2.000000e-02;stroke-miterlimit:10;}
	.st34{fill:#380E6D;}
	.st35{clip-path:url(#SVGID_25_);}
	.st36{fill:none;stroke:url(#SVGID_26_);stroke-width:15;stroke-miterlimit:10;}
	.st37{opacity:0;fill:#5D2C92;enable-background:new    ;}
	.st38{opacity:0.1;}
	.st39{fill:#65617D;}
	.st40{opacity:0.2;enable-background:new    ;}
	.st41{fill:#D4DFEC;}
	.st42{fill:#FBBEBE;}
	.st43{fill:url(#SVGID_28_);}
	.st44{fill:none;stroke:#5D2C92;stroke-width:2;stroke-miterlimit:10;}
	.st45{fill:url(#SVGID_29_);}
	.st46{fill:#E3E1E5;}
	.st47{fill:#FFB8B8;}
	.st48{fill-rule:evenodd;clip-rule:evenodd;fill:#3F3D56;}
	.st49{fill:#CCCCCC;}
	.st50{fill:#E6E6E6;}
	.st51{fill:#E2E2E2;}
</style>
<g>
	<ellipse class="st25" cx="726.8" cy="617.3" rx="105.3" ry="13.7"/>
	<rect x="15.8" y="46.3" class="st26" width="317.8" height="198.2"/>
	<rect x="35.5" y="27.3" class="st27" width="317.8" height="198.2"/>
	<path class="st25" d="M243.6,174.1c26.8-26.8,26.8-70.1,0-96.9c-12.8-12.8-30.3-20.1-48.4-20.1v68.5L243.6,174.1z"/>
	<path class="st28" d="M195.1,57.2c-37.8,0-68.5,30.7-68.5,68.5c0,25.1,13.7,48.2,35.7,60.2l32.8-60.2V57.2z"/>
	<path class="st29" d="M243.5,174.1L195,125.7l-32.8,60.2C188.9,200.4,222,195.6,243.5,174.1L243.5,174.1z"/>
	<rect x="47.9" y="184" class="st28" width="13.1" height="13.1"/>
	<rect x="66.8" y="184" class="st25" width="13.1" height="13.1"/>
	<rect x="85.8" y="184" class="st29" width="13.1" height="13.1"/>
	<rect x="274.6" y="186.9" class="st25" width="53.9" height="2.2"/>
	<rect x="274.6" y="193.5" class="st25" width="53.9" height="2.2"/>
	<rect x="274.6" y="200" class="st25" width="53.9" height="2.2"/>
	<rect x="115.7" y="322.5" class="st26" width="180.8" height="198.2"/>
	<rect x="133.9" y="303.5" class="st27" width="180.8" height="198.2"/>
	<rect x="143.4" y="479.9" class="st28" width="9.5" height="9.5"/>
	<rect x="157.2" y="479.9" class="st25" width="9.5" height="9.5"/>
	<rect x="171.8" y="479.9" class="st29" width="9.5" height="9.5"/>
	<rect x="252.7" y="483.6" class="st25" width="37.9" height="1.5"/>
	<rect x="252.7" y="487.9" class="st25" width="37.9" height="1.5"/>
	<rect x="252.7" y="493" class="st25" width="37.9" height="1.5"/>
	<path class="st25" d="M224.3,338.5v16c26.6,0,48.1,21.5,48.1,48.1c0,12.8-5.1,25-14.1,34l11.3,11.3c25-25,25-65.7,0-90.7
		C257.6,345.3,241.3,338.5,224.3,338.5z"/>
	<path class="st29" d="M269.5,448l-11.3-11.3c-17,17-44,18.8-63.1,4.3l-9.7,12.8C210.9,473.1,246.8,470.7,269.5,448z"/>
	<path class="st28" d="M176.2,402.7c0-26.6,21.5-48.1,48.1-48.1v-16c-35.4,0-64.1,28.7-64.1,64.1c0,20,9.4,38.9,25.3,51.1l9.7-12.8
		C183.2,431.9,176.2,417.7,176.2,402.7z"/>
	<path class="st30" d="M694.7,129c0,0-3,22.1,4.7,24.6s5.5,22.1,5.5,22.1L682,193.1l-20.4,1.7l-5.1-26.3l3-6.8
		c0,0,11.5-13.6,3.4-27.6C654.8,120,694.7,129,694.7,129z"/>
	<path class="st31" d="M694.7,129c0,0-3,22.1,4.7,24.6s5.5,22.1,5.5,22.1L682,193.1l-20.4,1.7l-5.1-26.3l3-6.8
		c0,0,11.5-13.6,3.4-27.6C654.8,120,694.7,129,694.7,129z"/>
	<path class="st29" d="M673.5,301l-26.8,62.9c0,0-20.8-11.9-33.1-10.6S586,339.7,586,339.7l15.3-73.9l28.5-78.6l39.5,25.1L673.5,301
		z"/>
	<path class="st31" d="M673.5,301l-26.8,62.9c0,0-20.8-11.9-33.1-10.6S586,339.7,586,339.7l15.3-73.9l28.5-78.6l39.5,25.1L673.5,301
		z"/>
	<polygon class="st29" points="715.5,568.1 715.5,588.5 696.4,588.5 699.4,564.7 	"/>
	<polygon class="st29" points="765.2,533 779.3,541.5 769.1,564.9 758.5,563.6 748.3,549.1 	"/>
	<path class="st32" d="M719.4,295.1l25.1,59.1c0,0-8.9,65.4-8.5,70.9c0.4,5.5,0.8,7.6-1.3,12.3s-3,7.6-1.7,13.2
		c1.3,5.5,1.7,7.6,0.8,9.8c-0.8,2.1-6.8,89.6-9.8,95.6c-3,5.9,1.7,15.7-1.3,16.6c-3,0.8-25.1-1.3-26.3-6.4
		c-1.3-5.1,4.2-17.4,1.3-21.2c-3-3.8,0.4-141.5-3.8-150.8c-4.2-9.3-51-17.8-51-17.8s-4.2-27.2-1.7-31.4c2.5-4.2,5.9-31,5.9-31
		L719.4,295.1z"/>
	<path class="st32" d="M694.7,585.2c0,0,11.9-14,22.1,0c0,0,0.8,16.6,8.1,20c7.2,3.4,3.8,17-6.4,17.4c-10.2,0.4-23.4,2.1-23.8-3.4
		c-0.4-5.5,1.7-8.9-2.1-10.6c-3.8-1.7,0-11.5,0-11.5L694.7,585.2z"/>
	<path class="st32" d="M696,382.2c0,0-0.4,30.6-3.4,34.8c-3,4.2-4.7,6.8-3,11.5c1.7,4.7,4.2,13.2,3,14.9s1.3,10.6,1.3,10.6
		s32.7,15.7,48,48.4c0,0,15.7,25.9,20.4,26.3s10.2-3,7.6,6.8c-2.5,9.8-12.3,22.5-19.5,21.2s-12.7-13.6-12.7-13.6
		s-56.5-57.4-62.5-59.1s-22.9-15.3-25.9-23.8c-3-8.5-9.3-79.4-6.4-84.1c3-4.7,14-11,14-11L696,382.2z"/>
	<path class="st32" d="M769.5,531.3c0,0,26.3,0.8,26.8,7.2c0.4,6.4-11,44.2-9.3,53.1c1.7,8.9-13.2,29.3-22.9,25.1
		s-2.1-26.3-2.1-26.3s-9.8-30.2-8.1-30.6c1.7-0.4,18.7-5.5,17.8-10.6C770.8,544,769.5,531.3,769.5,531.3z"/>
	<circle class="st30" cx="675" cy="125.4" r="26.3"/>
	<path class="st28" d="M701.9,165.9c0,0-14.4,15.3-25.1,12.7c-10.6-2.5-16.1-20.8-16.1-20.8l-19.1-3.4c0,0-13.6,60.3-13.6,66.3
		c0,5.9,13.6,70.1,13.6,81.6s-11,18.3,5.9,17.8c17-0.4,8.9-5.9,33.6-6.4c24.6-0.4,28.5,5.1,33.6-3.8c3.5-5.8,7.8-11.1,12.7-15.7
		l-8.9-31.4l-1.3-88.8c0,0-10.9-21.2-15.9-19.5C701.3,154.5,704,163.8,701.9,165.9z"/>
	<path class="st29" d="M696.3,150.7c0,0,22.7,2.5,29,7.2c6.4,4.7,24.2,8.1,23.8,11.5c-0.4,3.4-20.8,51.8-20.8,51.8
		s-9.3,38.2-1.3,47.2s38.2,106.2,33.1,114.3c-5.1,8.1-21.2-24.6-21.2-24.6s-21.7-70.1-33.6-82c-11.9-11.9-12.7-76-12.7-79
		S696.3,150.7,696.3,150.7z"/>
	<path class="st29" d="M663.2,155.6c0,0-27.9-10.5-37.7-6.3c-9.8,4.2-15.7,5.1-15.7,5.1l-3.4,41.6c0,0-1.3,59.9-12.3,74.3
		c-11,14.4-18.3,74.8-16.6,80.7c1.7,5.9-3,16.1,4.2,13.6c7.2-2.5,27.2-61.2,27.2-61.2s0-33.6,11.9-42.9c11.9-9.3,31.4-48,32.3-57.4
		c0.8-9.3,8.9-35.3,8.9-35.3L663.2,155.6z"/>
	<path class="st30" d="M758.9,289.6c0,0-12.7,23.8-14.4,28c-1.7,4.2-13.6,33.1-30.6,26.8c-17-6.4,16.6-37.4,16.6-37.4l7.6-25.9
		C738.1,281.1,758,276.8,758.9,289.6z"/>
	<path class="st29" d="M614,154.1h-4.2c0,0-4.2-3.4-9.3-1.3c-5.1,2.1-17-0.8-17,0.4c0,1.3-13.2-3.8-18.7-1.3
		c-5.5,2.5-25.5,3.4-25.5,3.4s-8.1,20.4-2.5,24.2s13.6,0.8,17.4,3.8c3.8,3,11-0.4,13.6,3.4c2.5,3.8,11.9,10.6,14,6.4
		s-2.1-8.1,6.8-3.4s22.9,4.7,22.9,4.7L614,154.1z"/>
	<path class="st32" d="M677.3,105.9c-3.6-0.8-7.3,0.1-10.9,0.7s-7.6,0.8-10.6-1.2c-2.3-1.5-3.6-3.9-4.9-6.3
		c-0.5-0.8-0.9-1.8-1.1-2.8c-0.2-1.8,1-3.3,2.1-4.6c5.5-6,13.5-9.3,21.6-10.4c6.7-0.9,13.6-0.3,19.7,2.4c6.1,2.7,11.4,7.6,13.8,13.9
		c1.1,3.2,1.8,6.5,2.1,9.9c0.4,2.5,0.4,5,0.1,7.5c-0.3,1.9-0.8,3.7-1.5,5.4l-4,12.1c-0.3,1.1-0.8,2.2-1.6,3.1
		c-0.8,0.9-2.1,1.2-3.2,0.7c0.3-1.3,0.4-2.7,0.1-4c-0.3-1.4-1.3-2.4-2.7-2.7c-1.5-0.2-2.7,1-4.1,1.5c-2.7,0.8-5.5-0.7-6.3-3.4
		c0-0.1-0.1-0.3-0.1-0.4c-0.2-1.4,0.2-2.9-0.4-4.2c-0.6-1.5-2.2-2.3-3.5-3.4c-2.3-2.1-3.1-5.3-2.2-8.3c0.3-1,1.3-1.5,1.1-2.6
		C680.9,107.3,678.6,106.2,677.3,105.9z"/>
	<rect x="385.4" y="198.6" class="st26" width="180.8" height="198.2"/>
	<rect x="403.6" y="179.6" class="st27" width="180.8" height="198.2"/>
	<polyline class="st27" points="421.1,192 421.1,343.6 567.6,343.6 	"/>
	<rect x="429.1" y="290.4" class="st29" width="32.8" height="52.5"/>
	<rect x="476.5" y="254.7" class="st25" width="32.8" height="88.2"/>
	<rect x="523.8" y="213.2" class="st28" width="32.8" height="129.7"/>
	<rect x="418.9" y="356" class="st28" width="9.5" height="9.5"/>
	<rect x="432.7" y="356" class="st25" width="9.5" height="9.5"/>
	<rect x="447.3" y="356" class="st29" width="9.5" height="9.5"/>
	<rect x="528.2" y="359.7" class="st25" width="37.9" height="1.5"/>
	<rect x="528.2" y="364.8" class="st25" width="37.9" height="1.5"/>
	<rect x="528.2" y="369.1" class="st25" width="37.9" height="1.5"/>
	<path class="st30" d="M543.6,155.7c7.7,0.3,13.5,7.4,12.7,15.1c-0.8,7-3.6,15.7-12.4,19c-15.7,5.9-14.9-27.6-11.9-28.9
		C534,160.1,537.1,155.4,543.6,155.7z"/>
	<path class="st29" d="M744.4,167.1l4.7,2.3c0,0,10.2,20.8,10.6,23.8c0.4,3,7.2,14,4.7,17c-2.5,3-6.4,10.6-3.8,13.6
		c2.5,3,8.5,14.9,8.5,19.1s-6.4,15.7-2.1,17c4.2,1.3,3,17.8,2.1,19.1S757.2,301,757.2,301s-2.1-23.8-22.9-14c0,0-1.7-11.9,0-12.7
		c1.7-0.8,5.9-5.9,2.5-6.8c-3.4-0.8-8.1-11-7.2-12.3c0.8-1.3,3-3,0.8-4.2c-2.1-1.3-3.8-8.5-3.4-9.8s-4.7-7.2-4.7-7.2L744.4,167.1z"
		/>
</g>
</svg>
